<svg version="1.1" viewBox="0.0 0.0 960.0 540.0" fill="none" stroke="none" stroke-linecap="square" stroke-miterlimit="10" xmlns:xlink="http://www.w3.org/1999/xlink" xmlns="http://www.w3.org/2000/svg"><clipPath id="gdb11e997e9_0_1205.0"><path d="m0 0l960.0 0l0 540.0l-960.0 0l0 -540.0z" clip-rule="nonzero"/></clipPath><g clip-path="url(#gdb11e997e9_0_1205.0)"><path fill="#f2b03b" d="m0 0l960.0 0l0 540.0l-960.0 0z" fill-rule="evenodd"/><path fill="#fb921d" d="m108.04649 45.309856l-37.606277 -21.29043l0 -44.253784l37.606277 -21.29043l37.606277 21.29043l0 44.253784z" fill-rule="evenodd"/><path stroke="#4f3b29" stroke-width="2.0" stroke-linejoin="round" stroke-linecap="butt" d="m108.04649 45.309856l-37.606277 -21.29043l0 -44.253784l37.606277 -21.29043l37.606277 21.29043l0 44.253784z" fill-rule="evenodd"/><path fill="#fb921d" d="m32.591286 45.309856l-37.606285 -21.29043l0 -44.253784l37.606285 -21.29043l37.606277 21.29043l0 44.253784z" fill-rule="evenodd"/><path stroke="#4f3b29" stroke-width="2.0" stroke-linejoin="round" stroke-linecap="butt" d="m32.591286 45.309856l-37.606285 -21.29043l0 -44.253784l37.606285 -21.29043l37.606277 21.29043l0 44.253784z" fill-rule="evenodd"/><path fill="#fb921d" d="m69.878784 110.93586l-37.60628 -21.290436l0 -44.25378l37.60628 -21.290432l37.606285 21.290432l0 44.25378z" fill-rule="evenodd"/><path stroke="#4f3b29" stroke-width="2.0" stroke-linejoin="round" stroke-linecap="butt" d="m69.878784 110.93586l-37.60628 -21.290436l0 -44.25378l37.60628 -21.290432l37.606285 21.290432l0 44.25378z" fill-rule="evenodd"/><path fill="#db6902" d="m32.889584 175.96526l-37.60628 -21.290436l0 -44.253777l37.60628 -21.290428l37.60628 21.290428l0 44.253777z" fill-rule="evenodd"/><path stroke="#4f3b29" stroke-width="2.0" stroke-linejoin="round" stroke-linecap="butt" d="m32.889584 175.96526l-37.60628 -21.290436l0 -44.253777l37.60628 -21.290428l37.60628 21.290428l0 44.253777z" fill-rule="evenodd"/><path fill="#fb921d" d="m919.22925 112.94784l21.290466 -37.606277l44.253784 0l21.290405 37.606277l-21.290405 37.606285l-44.253784 0z" fill-rule="evenodd"/><path stroke="#4f3b29" stroke-width="2.0" stroke-linejoin="round" stroke-linecap="butt" d="m919.22925 112.94784l21.290466 -37.606277l44.253784 0l21.290405 37.606277l-21.290405 37.606285l-44.253784 0z" fill-rule="evenodd"/><path fill="#fb921d" d="m919.22925 37.49263l21.290466 -37.60628l44.253784 0l21.290405 37.60628l-21.290405 37.606285l-44.253784 0z" fill-rule="evenodd"/><path stroke="#4f3b29" stroke-width="2.0" stroke-linejoin="round" stroke-linecap="butt" d="m919.22925 37.49263l21.290466 -37.60628l44.253784 0l21.290405 37.60628l-21.290405 37.606285l-44.253784 0z" fill-rule="evenodd"/><path fill="#fb921d" d="m853.6033 74.78013l21.290405 -37.60628l44.253784 0l21.290466 37.60628l-21.290466 37.606285l-44.253784 0z" fill-rule="evenodd"/><path stroke="#4f3b29" stroke-width="2.0" stroke-linejoin="round" stroke-linecap="butt" d="m853.6033 74.78013l21.290405 -37.60628l44.253784 0l21.290466 37.60628l-21.290466 37.606285l-44.253784 0z" fill-rule="evenodd"/><path fill="#db6902" d="m788.57385 37.790928l21.290466 -37.60628l44.253784 0l21.290405 37.60628l-21.290405 37.60628l-44.253784 0z" fill-rule="evenodd"/><path stroke="#4f3b29" stroke-width="2.0" stroke-linejoin="round" stroke-linecap="butt" d="m788.57385 37.790928l21.290466 -37.60628l44.253784 0l21.290405 37.60628l-21.290405 37.60628l-44.253784 0z" fill-rule="evenodd"/><path fill="#000000" fill-opacity="0.0" d="m-194.21785 205.6483l159.40158 0l0 37.32283l-159.40158 0z" fill-rule="evenodd"/><g filter="url(#shadowFilter-gdb11e997e9_0_1205.1)"><use xlink:href="#gdb11e997e9_0_1205.1" transform="matrix(1.0 0.0 0.0 1.0 0.0 1.9999999999999618)"/></g><defs><filter id="shadowFilter-gdb11e997e9_0_1205.1" filterUnits="userSpaceOnUse"><feGaussianBlur in="SourceAlpha" stdDeviation="2.0" result="blur"/><feComponentTransfer in="blur" color-interpolation-filters="sRGB"><feFuncR type="linear" slope="0" intercept="0.0"/><feFuncG type="linear" slope="0" intercept="0.0"/><feFuncB type="linear" slope="0" intercept="0.0"/><feFuncA type="linear" slope="0.59" intercept="0"/></feComponentTransfer></filter></defs><g id="gdb11e997e9_0_1205.1"><path fill="#ffffff" d="m344.0361 317.96448l-0.06124878 0.11871338l-0.11798096 -0.061828613l0.17922974 -0.056884766zm17.911621 10.035217l0.06488037 0.20648193l-0.13494873 -0.070739746l0.07006836 -0.13574219zm-1.8612671 -34.52939c-0.8444824 -0.44265747 -1.8586426 -0.56484985 -2.8455505 -0.2657776l-0.034454346 0.024993896c-1.9721985 0.62576294 -3.0407104 2.7381897 -2.4246826 4.698944l1.0374146 3.3026123l-0.29760742 0.5767212c-2.1280212 0.26385498 -3.9743958 1.5588684 -4.9635925 3.4759216c-0.105041504 0.20352173 -0.21005249 0.40704346 -0.2814026 0.62823486l-0.4902649 0.95010376l-13.01535 -6.822174c-4.4171143 -2.315277 -9.863861 -0.6013489 -12.166046 3.860199c-2.3020935 4.4613037 -0.5668335 9.940063 3.8502502 12.255341l4.585724 2.403656c0.05480957 0.030914307 0.110076904 0.06097412 0.165802 0.090148926c0.48355103 0.253479 0.99884033 0.4423523 1.5147705 0.59661865l0 0l-3.0737 0.97525024c-1.5111084 0.47946167 -2.3427124 2.091095 -1.864502 3.6132812l0.53515625 1.7028503c0.23913574 0.7611084 0.7590027 1.3515015 1.4060974 1.6906738c0.6468506 0.3390503 1.420929 0.4269104 2.1680298 0.18273926l6.5481873 -2.0634155c-0.38494873 1.2852478 -0.50735474 2.6437073 -0.35754395 3.972107l-0.001953125 0.12841797c0.38153076 3.411255 2.4348145 6.4056396 5.4526978 7.9875183c3.0178833 1.5818481 6.6292725 1.5567017 9.619568 -0.08718872l0.11993408 -0.066589355c1.0195312 -0.56463623 1.9487915 -1.3276672 2.7098694 -2.2216492l2.123932 6.759857c0.23065186 0.75665283 0.7505188 1.3470459 1.3997192 1.6873169c0.6489868 0.34017944 1.4273071 0.43026733 2.1743774 0.18609619l1.716095 -0.5444946c1.5024109 -0.46261597 2.3339233 -2.0740662 1.8558044 -3.596466l-0.9728699 -3.0960388l0 0c0.46148682 0.3927307 0.9747009 0.7264404 1.5141602 1.0092163l4.5690002 2.3948975c4.433838 2.3240356 9.889374 0.5930481 12.191559 -3.8684692c2.293396 -4.4444885 0.5668335 -9.940063 -3.8670044 -12.26413l0.00869751 -0.016845703l-13.015564 -6.8222656l1.0592651 -2.052826l0.096221924 -0.1864624c0.90371704 -1.8754883 0.85180664 -4.058014 -0.09725952 -5.9131165l0.2975769 -0.5766907l3.278473 -1.0404053c1.9552612 -0.6346741 3.0407104 -2.7381897 2.4333801 -4.71579c-0.31192017 -0.9934082 -0.9949341 -1.7662354 -1.846405 -2.2125244c-0.8512573 -0.44622803 -1.8712158 -0.56604004 -2.8572693 -0.25299072l-5.113922 1.6081848c-0.56344604 0.17877197 -1.070282 0.53829956 -1.4258728 1.0198975c0.1869812 -0.5699768 0.20495605 -1.1857605 0.026641846 -1.7533264l-1.6131897 -5.1342773c-0.30447388 -0.9921875 -0.98239136 -1.7623596 -1.8323975 -2.2078857z" fill-rule="evenodd"/></g><path fill="#fb921d" d="m342.917 329.01602c0.25106812 2.5021667 1.7301636 4.7000732 3.9387207 5.8576965c2.2085571 1.1576538 4.843231 1.1160583 7.0199585 -0.11355591z" fill-rule="evenodd"/><path fill="#fb921d" d="m345.96964 320.44363l-0.78775024 1.5266113l-0.82281494 1.594574l-0.4552002 0.8821106l13.116608 6.875244l0.19256592 -0.37316895l0.82284546 -1.594574l1.050354 -2.035553z" fill-rule="evenodd"/><path fill="#fb921d" d="m350.10135 312.43658l-0.4902649 0.95010376l-1.575592 3.0534058l13.116608 6.8752747l1.3130798 -2.5447083l0.7527771 -1.4588318z" fill-rule="evenodd"/><path fill="#4f3b29" d="m358.0359 329.35443l-0.82284546 1.594574l2.9672852 1.5553284l2.6506042 8.43689l1.7072754 -0.5274353l-2.877594 -9.159424z" fill-rule="evenodd"/><path fill="#4f3b29" d="m341.5741 320.07916l-9.075714 2.893921l0.5349426 1.7027283l8.375427 -2.6574402l2.9503174 1.5464478l0.82281494 -1.594574z" fill-rule="evenodd"/><path fill="#4f3b29" d="m343.89508 324.464l-0.20126343 0.39001465c-0.65652466 1.2723389 -0.9333801 2.722046 -0.77682495 4.162018l10.975403 5.752899c1.2428894 -0.7064209 2.2615051 -1.767334 2.9180603 -3.0396729l0.20123291 -0.39001465z" fill-rule="evenodd"/><path fill="#4f3b29" d="m348.0355 316.4401l-2.065857 4.00354l13.116608 6.875244l2.065857 -4.0035095z" fill-rule="evenodd"/><path fill="#4f3b29" d="m359.65335 310.07257c-0.90982056 1.7214661 -2.9857788 2.465332 -4.774658 1.6568298c-0.07815552 -0.034210205 -0.15444946 -0.07095337 -0.2290039 -0.11001587c-1.6252441 -0.8518982 -2.3924255 -2.8033752 -1.7565308 -4.5514526l-2.7748718 5.377533l13.09967 6.8663635l2.9937134 -5.8016357c-0.9366455 1.815155 -3.1738281 2.5392456 -4.9778137 1.5936584c-1.8207397 -0.9543457 -2.5171509 -3.2161255 -1.5805054 -5.0312805z" fill-rule="evenodd"/><path fill="#35a8e0" d="m335.45798 302.58438c-3.0178833 -1.5818787 -6.748535 -0.41241455 -8.324249 2.6412048c-1.566803 3.036377 -0.3833313 6.8032837 2.634552 8.385132l4.5689697 2.3948975c1.3992004 0.73342896 3.0281372 0.8976135 4.55542 0.46966553l10.718414 -3.0885925l1.3743286 -2.663391z" fill-rule="evenodd"/><path fill="#35a8e0" d="m363.83942 318.10748l-1.3655396 2.6463318l3.6448975 10.660675c0.5126648 1.4971924 1.5983276 2.75589 2.997528 3.4893188l4.5690002 2.394867c3.034607 1.5906372 6.7571106 0.39526367 8.324036 -2.641327c1.575592 -3.0534058 0.40908813 -6.811432 -2.6255493 -8.402069z" fill-rule="evenodd"/><path fill="#ececec" d="m364.62656 308.493c-0.26348877 -0.13812256 -0.54016113 -0.24551392 -0.82373047 -0.31860352c-1.6424255 -0.3867798 -3.3359985 0.3633728 -4.148926 1.8553772c-0.00881958 0.017059326 -0.017486572 0.03390503 -0.026306152 0.050933838c-0.9366455 1.8151855 -0.21447754 4.0687866 1.5895386 5.014374c1.8207092 0.9543457 4.0490723 0.24731445 4.985718 -1.5678406c0.00881958 -0.017059326 0.017486572 -0.03390503 0.026306152 -0.050933838c0.76208496 -1.5186768 0.39898682 -3.3468628 -0.8583069 -4.480011c-0.23068237 -0.19644165 -0.48101807 -0.3652954 -0.7442932 -0.5032959z" fill-rule="evenodd"/><path fill="#ececec" d="m358.07062 305.04037c-0.26348877 -0.13812256 -0.5463867 -0.24334717 -0.8428345 -0.3123474c-1.6505432 -0.41271973 -3.3617249 0.3715515 -4.149475 1.8981323c-0.07003784 0.1357727 -0.14889526 0.28857422 -0.18515015 0.44177246c-0.6468506 1.7515564 0.11331177 3.7234497 1.7656555 4.5895386c1.8040161 0.94558716 4.032135 0.23843384 4.9857483 -1.5678406c0.0087890625 -0.017059326 0.017486572 -0.03390503 0.026275635 -0.050964355c0.7621155 -1.5186462 0.4078064 -3.3638916 -0.87524414 -4.488861c-0.21780396 -0.200531 -0.46148682 -0.37130737 -0.7249756 -0.50942993z" fill-rule="evenodd"/><path fill="#4f3b29" d="m371.57303 302.70135c-0.18682861 -0.09793091 -0.4199524 -0.12536621 -0.6855774 -0.03768921l-5.0967712 1.617157l-1.9520264 3.7829285c-0.017486572 0.03390503 -0.035095215 0.067993164 -0.043762207 0.08483887c0.29171753 0.07763672 0.5727234 0.18704224 0.8362427 0.32513428c0.26327515 0.13800049 0.5092468 0.3048401 0.7315674 0.49667358l0.008148193 0.025909424c0.017486572 -0.03387451 0.035095215 -0.06796265 0.052581787 -0.101867676l1.6105652 -3.1211853l4.388611 -1.4067383c0.8762512 -0.26715088 0.7623596 -1.3444214 0.15042114 -1.6651611z" fill-rule="evenodd"/><path fill="#4f3b29" d="m358.749 296.01007c-0.20227051 -0.10601807 -0.4439087 -0.1357727 -0.6746521 -0.062561035c-0.4607849 0.14620972 -0.7233887 0.65515137 -0.57766724 1.1195374l1.3942566 4.4378967l-1.6105652 3.1211853c-0.034454346 0.025024414 -0.05203247 0.05911255 -0.052581787 0.10189819c0.28799438 0.064575195 0.5666199 0.16757202 0.83013916 0.30569458c0.26348877 0.13809204 0.51138306 0.3110962 0.7376709 0.51608276c0.017486572 -0.03387451 0.035095215 -0.067993164 0.052581787 -0.101867676l1.9520264 -3.7829285l-1.6130066 -5.134186c-0.07299805 -0.23239136 -0.23590088 -0.4147339 -0.4382019 -0.52075195z" fill-rule="evenodd"/><g filter="url(#shadowFilter-gdb11e997e9_0_1205.2)"><use xlink:href="#gdb11e997e9_0_1205.2" transform="matrix(1.0 0.0 0.0 1.0 0.0 2.0)"/></g><defs><filter id="shadowFilter-gdb11e997e9_0_1205.2" filterUnits="userSpaceOnUse"><feGaussianBlur in="SourceAlpha" stdDeviation="2.0" result="blur"/><feComponentTransfer in="blur" color-interpolation-filters="sRGB"><feFuncR type="linear" slope="0" intercept="0.0"/><feFuncG type="linear" slope="0" intercept="0.0"/><feFuncB type="linear" slope="0" intercept="0.0"/><feFuncA type="linear" slope="0.59" intercept="0"/></feComponentTransfer></filter></defs><g id="gdb11e997e9_0_1205.2"><path fill="#ffffff" d="m539.2286 298.98975l0.078186035 0.108184814l-0.107421875 0.07879639l0.02923584 -0.1869812zm16.888062 -11.674866l0.21234131 0.033599854l-0.12286377 0.09011841l-0.08947754 -0.12371826zm-31.508362 -13.723236c-0.769104 0.5640259 -1.3290405 1.4240112 -1.5025635 2.4472961l0.0068969727 0.04220581c-0.3217163 2.0574646 1.0796509 3.9631653 3.0960083 4.2822876l3.3961182 0.5376892l0.37994385 0.52557373c-0.71258545 2.0365295 -0.38372803 4.279022 0.87939453 6.0260925c0.13409424 0.18548584 0.26818848 0.37097168 0.4329834 0.53396606l0.62597656 0.8658447l-11.854126 8.693054c-4.0230713 2.9501953 -4.9242554 8.626038 -1.9846802 12.691956c2.939392 4.065735 8.579651 4.944824 12.602661 1.9945984l4.1765747 -3.0628052c0.051818848 -0.03564453 0.103149414 -0.07208252 0.15386963 -0.10928345c0.4404297 -0.32299805 0.83758545 -0.70336914 1.2042236 -1.0997925l0 0l-0.5014038 3.2065735c-0.246521 1.5764465 0.81536865 3.045166 2.3806763 3.2929077l1.7512207 0.27697754c0.7826538 0.12387085 1.5385742 -0.08157349 2.1279297 -0.5137634c0.58917236 -0.43203735 1.0117188 -1.0908508 1.1272583 -1.8733826l1.0809326 -6.824951c0.9706421 0.92041016 2.123169 1.6367188 3.3701782 2.0941467l0.113220215 0.059020996c3.2007446 1.1775818 6.7751465 0.66171265 9.523743 -1.3539429c2.7486572 -2.0156555 4.333557 -5.2832947 4.2037354 -8.712891l-0.0057373047 -0.1378479c-0.047973633 -1.1711731 -0.31237793 -2.3494263 -0.76794434 -3.4344482l6.951477 1.1000061c0.7749634 0.12954712 1.5308838 -0.07589722 2.1221924 -0.50949097c0.59106445 -0.43347168 1.0175171 -1.0950928 1.1330566 -1.877655l0.27996826 -1.7902527c0.25756836 -1.5610962 -0.8041382 -3.0296326 -2.369629 -3.2775574l-3.183838 -0.50375366l0 0c0.5543213 -0.2409668 1.0792236 -0.5548706 1.5705566 -0.91519165l4.161377 -3.0516357c4.038208 -2.9613953 4.9282227 -8.652771 1.9886475 -12.718689c-2.9282837 -4.0503845 -8.579651 -4.944824 -12.61792 -1.983429l-0.011047363 -0.015350342l-11.85437 8.693207l-1.3525391 -1.8707886l-0.12286377 -0.1699524c-1.2641602 -1.6514282 -3.2265015 -2.578125 -5.29718 -2.5498047l-0.37994385 -0.52557373l0.53466797 -3.4202576c0.3062744 -2.0461426 -1.0796509 -3.9631653 -3.1071167 -4.297638c-1.0214233 -0.16183472 -2.012085 0.10934448 -2.7875977 0.67803955c-0.7753296 0.568573 -1.3356934 1.4348145 -1.4963989 2.4635925l-0.8470459 5.3285522c-0.091918945 0.5877991 0.001953125 1.2051697 0.27160645 1.7406311c-0.42321777 -0.42285156 -0.9623413 -0.7137146 -1.5460205 -0.8060913l-5.279846 -0.8354492c-1.0170898 -0.16802979 -2.0031128 0.099731445 -2.7772827 0.66744995z" fill-rule="evenodd"/></g><path fill="#db6902" d="m548.55 304.92828c2.334961 0.8897095 4.946106 0.53634644 6.9576416 -0.9387512c2.0114746 -1.4751282 3.1470947 -3.8693848 3.0233154 -6.380615z" fill-rule="evenodd"/><path fill="#db6902" d="m542.2919 298.35208l1.0057983 1.3912354l1.0506592 1.453186l0.58117676 0.80392456l11.94635 -8.760681l-0.24584961 -0.3400879l-1.0506592 -1.453186l-1.3411255 -1.8550415z" fill-rule="evenodd"/><path fill="#db6902" d="m537.0163 291.05502l0.62597656 0.8658447l2.0117798 2.7826843l11.94635 -8.760651l-1.6765747 -2.3190613l-0.96118164 -1.3294678z" fill-rule="evenodd"/><path fill="#4f3b29" d="m555.57935 291.44647l1.0506592 1.453186l2.7025146 -1.981842l8.676025 1.3731384l0.2911377 -1.7747498l-9.419006 -1.4907227z" fill-rule="evenodd"/><path fill="#4f3b29" d="m540.0118 302.15298l-1.4678345 9.474426l1.7509766 0.27713013l1.366333 -8.737488l2.6870728 -1.9705505l-1.0506592 -1.453186z" fill-rule="evenodd"/><path fill="#4f3b29" d="m544.94073 302.01596l0.256958 0.35543823c0.8383179 1.1595154 2.0031738 2.0557861 3.352295 2.5568848l9.996216 -7.330536c-0.074523926 -1.435791 -0.5638428 -2.8274841 -1.4021606 -3.98703l-0.256958 -0.35543823z" fill-rule="evenodd"/><path fill="#4f3b29" d="m539.65405 294.70355l2.6378174 3.648529l11.94635 -8.760651l-2.6378174 -3.648529z" fill-rule="evenodd"/><path fill="#4f3b29" d="m539.16693 281.38748c1.1246338 1.5882263 0.86169434 3.7919312 -0.65283203 5.044342c-0.06518555 0.0552063 -0.1317749 0.1076355 -0.199646 0.15740967c-1.4802246 1.0855103 -3.555603 0.90686035 -4.8258057 -0.44622803l3.5430908 4.900696l11.930908 -8.749329l-3.8225098 -5.2872314c1.1959229 1.6542358 0.84368896 3.9944458 -0.79937744 5.199341c-1.6582642 1.216095 -3.9778442 0.8352051 -5.173828 -0.81900024z" fill-rule="evenodd"/><path fill="#35a8e0" d="m521.74536 299.8645c-2.7486572 2.0156555 -3.369873 5.901245 -1.3579712 8.684113c2.0005493 2.7671204 5.8742676 3.3802185 8.622864 1.364563l4.161316 -3.0516663c1.2744141 -0.9345398 2.1452637 -2.3301086 2.4447632 -3.8981628l2.02594 -11.04248l-1.7548218 -2.4272156z" fill-rule="evenodd"/><path fill="#35a8e0" d="m548.1691 281.19678l1.7435913 2.4117126l11.09436 1.4684753c1.5584717 0.20553589 3.1599731 -0.2119751 4.434387 -1.1465149l4.161316 -3.0516663c2.763855 -2.026825 3.3584595 -5.916626 1.3577881 -8.68396c-2.0118408 -2.7826538 -5.870056 -3.407074 -8.633911 -1.3802185z" fill-rule="evenodd"/><path fill="#ececec" d="m539.9768 276.19855c-0.23999023 0.17599487 -0.4584961 0.37756348 -0.6496582 0.6006775c-1.074646 1.3084412 -1.1618042 3.170166 -0.19793701 4.568695c0.011230469 0.015533447 0.022338867 0.030883789 0.033569336 0.046417236c1.1959229 1.6542053 3.5197144 2.0082397 5.1627197 0.8033447c1.6583252 -1.216095 2.0217896 -3.5407715 0.8258667 -5.1950073c-0.011230469 -0.015533447 -0.022338867 -0.030883789 -0.033569336 -0.046417236c-1.0101929 -1.364563 -2.7961426 -1.8526001 -4.362549 -1.2243347c-0.27722168 0.120391846 -0.53863525 0.27078247 -0.7784424 0.44662476z" fill-rule="evenodd"/><path fill="#ececec" d="m533.99133 280.57007c-0.23999023 0.17599487 -0.4593506 0.38412476 -0.6525879 0.6206665c-1.1013184 1.3042297 -1.1660156 3.1970215 -0.16021729 4.588257c0.08947754 0.12371826 0.19012451 0.26296997 0.31011963 0.36401367c1.2684326 1.364502 3.3587646 1.5585938 4.8637085 0.45498657c1.6430054 -1.204895 2.0063477 -3.5294495 0.82580566 -5.194977c-0.011230469 -0.015533447 -0.022277832 -0.030883789 -0.0335083 -0.046417236c-1.0101929 -1.3645935 -2.807434 -1.8681641 -4.3779907 -1.2130127c-0.27514648 0.106933594 -0.53533936 0.25048828 -0.7753296 0.42648315z" fill-rule="evenodd"/><path fill="#4f3b29" d="m537.92236 267.3516c-0.17010498 0.12475586 -0.2982788 0.3227539 -0.33862305 0.6013794l-0.8314209 5.3170776l2.4924316 3.4475098c0.022338867 0.030883789 0.044799805 0.061950684 0.055908203 0.077301025c0.19885254 -0.22842407 0.42108154 -0.43301392 0.6610718 -0.6090088c0.23980713 -0.17584229 0.49749756 -0.3232422 0.7668457 -0.43814087l0.026672363 0.004211426c-0.022277832 -0.030883789 -0.044799805 -0.061950684 -0.06707764 -0.09283447l-2.0564575 -2.844452l0.7032471 -4.5846863c0.15258789 -0.90930176 -0.85528564 -1.2870789 -1.4125977 -0.87835693z" fill-rule="evenodd"/><path fill="#4f3b29" d="m526.2697 275.93048c-0.18426514 0.13510132 -0.3182373 0.33972168 -0.35583496 0.5804138c-0.07519531 0.4807129 0.26013184 0.94454956 0.73760986 1.0202637l4.5636597 0.72229004l2.0564575 2.844452c0.0068969727 0.042175293 0.02935791 0.073272705 0.06713867 0.09283447c0.18554688 -0.23086548 0.401062 -0.43618774 0.64105225 -0.6121826c0.23999023 -0.17599487 0.5040283 -0.32235718 0.78686523 -0.43496704c-0.022338867 -0.030883789 -0.044799805 -0.0619812 -0.06713867 -0.09286499l-2.4924316 -3.4475098l-5.279663 -0.8356018c-0.23901367 -0.03781128 -0.47351074 0.027770996 -0.65771484 0.16287231z" fill-rule="evenodd"/><g filter="url(#shadowFilter-gdb11e997e9_0_1205.3)"><use xlink:href="#gdb11e997e9_0_1205.3" transform="matrix(1.0 0.0 0.0 1.0 0.0 2.0)"/></g><defs><filter id="shadowFilter-gdb11e997e9_0_1205.3" filterUnits="userSpaceOnUse"><feGaussianBlur in="SourceAlpha" stdDeviation="2.0" result="blur"/><feComponentTransfer in="blur" color-interpolation-filters="sRGB"><feFuncR type="linear" slope="0" intercept="0.0"/><feFuncG type="linear" slope="0" intercept="0.0"/><feFuncB type="linear" slope="0" intercept="0.0"/><feFuncA type="linear" slope="0.59" intercept="0"/></feComponentTransfer></filter></defs><g id="gdb11e997e9_0_1205.3"><path fill="#ffffff" d="m469.26654 386.15616l0.022521973 0.13201904l-0.13113403 0.02279663l0.10861206 -0.15481567zm20.297638 -2.9472656l0.17572021 0.12487793l-0.1499939 0.02609253l-0.025726318 -0.15097046zm-22.225647 -26.376038c-0.93865967 0.16323853 -1.8199768 0.68551636 -2.4265442 1.5267639l-0.012420654 0.04095459c-1.195221 1.7035828 -0.7774353 4.0395813 0.8911743 5.2255554l2.8104553 1.9977417l0.109375 0.6413269c-1.5367737 1.5104065 -2.2297363 3.6703186 -1.8661499 5.8022156c0.038604736 0.22634888 0.07720947 0.45269775 0.15322876 0.67251587l0.1802063 1.0565796l-14.466888 2.5159912c-4.909729 0.8538513 -8.219208 5.5473022 -7.373047 10.50882c0.84609985 4.9613037 5.5197144 8.266632 10.429443 7.4127502l5.097107 -0.8864441c0.06225586 -0.008880615 0.12432861 -0.018707275 0.18624878 -0.02947998c0.5375061 -0.09347534 1.0614624 -0.25778198 1.5651245 -0.45007324l0 0l-1.8627625 2.6549988c-0.9157715 1.3052673 -0.61013794 3.0975037 0.6852722 4.018219l1.4493103 1.0298767c0.6477051 0.46035767 1.4165039 0.6131592 2.1357727 0.48806763c0.71899414 -0.12503052 1.3884277 -0.5279541 1.8369141 -1.1789551l3.9770203 -5.6448975c0.46542358 1.2593079 1.18396 2.4165344 2.1013184 3.3834534l0.07559204 0.103515625c2.3532104 2.4850159 5.7877502 3.6164856 9.142212 3.033081c3.3544312 -0.583374 6.2163086 -2.809845 7.6109924 -5.946686l0.055541992 -0.12631226c0.47302246 -1.072815 0.75491333 -2.2485657 0.8241577 -3.4258728l5.752899 4.0886536c0.63827515 0.46200562 1.4071045 0.6147766 2.1286926 0.48928833c0.7213745 -0.12545776 1.3955078 -0.5292053 1.8439941 -1.1802063l1.0400085 -1.4822998c0.91897583 -1.28656 0.6133423 -3.0785828 -0.6820984 -3.9995117l-2.6348877 -1.8725586l0 0c0.60354614 0.030944824 1.2128601 -0.016693115 1.8125 -0.12097168l5.0785217 -0.8832092c4.9283447 -0.8571167 8.234558 -5.569519 7.3884277 -10.531036c-0.842926 -4.942566 -5.5197144 -8.266632 -10.448059 -7.4095154l-0.0031738281 -0.018737793l-14.467133 2.5160217l-0.38931274 -2.2828674l-0.035369873 -0.20736694c-0.40673828 -2.0465393 -1.7591858 -3.7538757 -3.6296692 -4.6521606l-0.109375 -0.6413574l1.9867554 -2.8320007c1.1763916 -1.7003174 0.7774658 -4.0395813 -0.89437866 -5.244293c-0.84524536 -0.60095215 -1.8536072 -0.799469 -2.8000488 -0.6348572c-0.946228 0.16455078 -1.830719 0.69226074 -2.4282227 1.5441284l-3.1078796 4.4058228c-0.34146118 0.48669434 -0.52923584 1.0828247 -0.5232239 1.6838074c-0.19342041 -0.5683899 -0.54901123 -1.0700378 -1.0320435 -1.4133301l-4.3694763 -3.1054077c-0.8385925 -0.60458374 -1.8413086 -0.80404663 -2.7861023 -0.63974z" fill-rule="evenodd"/></g><path fill="#fb921d" d="m475.014 395.6458c1.7031555 1.840332 4.2018127 2.6879578 6.6566772 2.2610474c2.454834 -0.42694092 4.528778 -2.0697937 5.52417 -4.3794556z" fill-rule="evenodd"/><path fill="#fb921d" d="m472.29617 386.95023l0.28952026 1.6976929l0.3024292 1.7732849l0.16729736 0.98098755l14.579437 -2.535553l-0.07077026 -0.41500854l-0.3024292 -1.7732849l-0.38604736 -2.2636719z" fill-rule="evenodd"/><path fill="#fb921d" d="m470.7776 378.04584l0.1802063 1.0565796l0.57910156 3.39563l14.579437 -2.535553l-0.4826355 -2.829895l-0.27667236 -1.6223145z" fill-rule="evenodd"/><path fill="#4f3b29" d="m487.26166 386.67834l0.3024292 1.7732849l3.2981873 -0.5735779l7.179901 5.103119l1.0432129 -1.4633789l-7.7947693 -5.5401306z" fill-rule="evenodd"/><path fill="#4f3b29" d="m468.57556 389.34534l-5.491638 7.85083l1.4490662 1.0299072l5.0758057 -7.2345276l3.2793274 -0.570343l-0.3024292 -1.7732849z" fill-rule="evenodd"/><path fill="#4f3b29" d="m473.05865 391.42114l0.07397461 0.43374634c0.24130249 1.414917 0.8916321 2.7391968 1.8813782 3.790924l12.199432 -2.121643c0.5657654 -1.3222351 0.7399292 -2.789917 0.4986267 -4.204834l-0.07397461 -0.43374634z" fill-rule="evenodd"/><path fill="#4f3b29" d="m471.5369 382.49805l0.75927734 4.452179l14.579437 -2.535553l-0.75927734 -4.452179z" fill-rule="evenodd"/><path fill="#4f3b29" d="m476.967 370.32623c0.30932617 1.9275513 -0.897583 3.7886047 -2.8083801 4.237335c-0.08282471 0.020507812 -0.16567993 0.037841797 -0.24853516 0.052246094c-1.806488 0.31417847 -3.5899963 -0.7720337 -4.133545 -2.5534363l1.0198975 5.980194l14.560577 -2.5322876l-1.1003113 -6.4518127c0.3442688 2.0185852 -1.0029602 3.9623718 -3.0081482 4.311096c-2.0238037 0.35195923 -3.937317 -1.0247192 -4.281555 -3.043335z" fill-rule="evenodd"/><path fill="#35a8e0" d="m453.19354 379.14212c-3.3544617 0.58340454 -5.623932 3.7945251 -5.0448 7.1903687c0.5758667 3.376648 3.7815552 5.6550903 7.1359863 5.0717163l5.0785522 -0.8832092c1.5552673 -0.2705078 2.951538 -1.1348877 3.9111938 -2.4089966l6.683319 -9.0095825l-0.50512695 -2.9618835z" fill-rule="evenodd"/><path fill="#35a8e0" d="m485.1286 374.17096l0.5019226 2.9429321l9.307861 6.2675476c1.3078003 0.87976074 2.928833 1.2193909 4.4841003 0.9489136l5.0785217 -0.8832092c3.3730469 -0.5866089 5.6204834 -3.813446 5.0445557 -7.190338c-0.57907104 -3.3955994 -3.7659302 -5.6773376 -7.138977 -5.0906982z" fill-rule="evenodd"/><path fill="#ececec" d="m479.97998 366.02917c-0.2928772 0.050933838 -0.5777893 0.13439941 -0.84762573 0.24942017c-1.540741 0.695282 -2.43927 2.3277283 -2.1906128 4.0132446c0.0032348633 0.018951416 0.006439209 0.03768921 0.009674072 0.056640625c0.34423828 2.0185852 2.273346 3.3730469 4.278534 3.0243225c2.0238037 -0.35195923 3.3742676 -2.2767944 3.0299988 -4.2953796c-0.0032348633 -0.018951416 -0.006439209 -0.03768921 -0.009643555 -0.056640625c-0.30517578 -1.6756897 -1.6927185 -2.910553 -3.3750305 -3.045288c-0.30178833 -0.015594482 -0.60266113 0.0028076172 -0.8952942 0.05368042z" fill-rule="evenodd"/><path fill="#ececec" d="m472.68314 367.28357c-0.2928772 0.050933838 -0.5814514 0.1399231 -0.8590698 0.26605225c-1.5628357 0.6795654 -2.454895 2.349945 -2.1653748 4.047638c0.025756836 0.15097046 0.054718018 0.32089233 0.11785889 0.4651184c0.53692627 1.7908325 2.3270874 2.8976135 4.1636963 2.5782166c2.005188 -0.34872437 3.3554077 -2.273529 3.0299988 -4.2953796c-0.0032348633 -0.018981934 -0.006439209 -0.03768921 -0.009674072 -0.056671143c-0.30517578 -1.6756592 -1.6959229 -2.9295044 -3.3938293 -3.0419922c-0.29400635 -0.026733398 -0.59072876 -0.013916016 -0.88360596 0.037017822z" fill-rule="evenodd"/><path fill="#4f3b29" d="m482.0346 357.17032c-0.2076416 0.036132812 -0.40985107 0.15670776 -0.5687866 0.38885498l-3.0888367 4.4024963l0.71746826 4.2068787c0.0064086914 0.03768921 0.012878418 0.07559204 0.016082764 0.094329834c0.27905273 -0.116363525 0.56863403 -0.20089722 0.86151123 -0.25183105c0.29263306 -0.05090332 0.58880615 -0.068237305 0.88116455 -0.051239014l0.022064209 0.015686035c-0.0064086914 -0.03768921 -0.012878418 -0.07562256 -0.019317627 -0.11331177l-0.59194946 -3.4709778l2.6510925 -3.8021545c0.53756714 -0.7482605 -0.20031738 -1.5370178 -0.88049316 -1.4187317z" fill-rule="evenodd"/><path fill="#4f3b29" d="m467.7988 359.6737c-0.22485352 0.039093018 -0.43521118 0.16305542 -0.5750427 0.3623352c-0.27926636 0.39804077 -0.18273926 0.96398926 0.21231079 1.2449951l3.776703 2.6842957l0.59198 3.4709778c-0.012420654 0.040985107 -0.0059509277 0.07888794 0.019317627 0.11331177c0.26818848 -0.12451172 0.552063 -0.212677 0.8449402 -0.26361084c0.2928772 -0.050933838 0.5942993 -0.06454468 0.8977356 -0.03945923c-0.006439209 -0.03768921 -0.012908936 -0.07562256 -0.019348145 -0.11331177l-0.71743774 -4.2068787l-4.369232 -3.1054382c-0.19778442 -0.14059448 -0.43710327 -0.18634033 -0.66192627 -0.1472168z" fill-rule="evenodd"/><g filter="url(#shadowFilter-gdb11e997e9_0_1205.4)"><use xlink:href="#gdb11e997e9_0_1205.4" transform="matrix(1.0 0.0 0.0 1.0 0.0 2.0)"/></g><defs><filter id="shadowFilter-gdb11e997e9_0_1205.4" filterUnits="userSpaceOnUse"><feGaussianBlur in="SourceAlpha" stdDeviation="2.0" result="blur"/><feComponentTransfer in="blur" color-interpolation-filters="sRGB"><feFuncR type="linear" slope="0" intercept="0.0"/><feFuncG type="linear" slope="0" intercept="0.0"/><feFuncB type="linear" slope="0" intercept="0.0"/><feFuncA type="linear" slope="0.5" intercept="0"/></feComponentTransfer></filter></defs><g id="gdb11e997e9_0_1205.4"><path fill="#ffffff" d="m485.8797 163.30449c-11.305969 0 -21.363556 7.5464478 -24.484985 18.51648l-3.3985596 1.8868256l-72.27609 -3.0043793l-24.901123 -2.6552277c-0.34661865 0 -0.69415283 -0.070007324 -1.0407715 -0.070007324c-5.7572327 0 -10.404205 4.75119 -10.404205 10.48082l0 27.669678c0 6.1380463 4.98291 10.532883 10.442535 10.532883c1.6261902 0 3.2951965 -0.38957214 4.8866577 -1.2396393l22.543335 -12.227615l29.201447 -0.90841675l0 0c-0.4161377 1.1184692 -0.69415283 2.3060455 -0.8322754 3.5636292c-1.0407715 0.62924194 -2.0120544 1.2575836 -2.9824219 1.9568481l-1.9425354 0c-8.393066 0 -14.913055 7.3363953 -14.080811 15.651215c-7.0751343 2.6552124 -10.889832 10.48082 -8.531158 17.678085c-4.439331 4.1228485 -5.8267517 10.550827 -3.468048 16.141312c-4.50885 5.2404175 -4.50885 12.996002 0 18.306427c-2.3587036 5.5895996 -0.97128296 12.018463 3.468048 16.07132c-2.289154 7.2663574 1.4560242 15.09198 8.6006775 17.67807c-0.9017639 8.384827 5.618225 15.651215 14.0112915 15.651215l2.011139 0c0.97128296 0.69924927 1.9425659 1.3976135 2.9138184 2.0268555c0.6932678 7.266388 6.7971497 12.786865 14.08078 12.786865l29.964233 0c7.214142 0 13.318024 -5.5204773 14.0112915 -12.786865c0.97125244 -0.62924194 2.012024 -1.3276062 2.9138184 -2.0268555l2.011139 0c8.393066 0 14.913055 -7.266388 14.0112915 -15.651215c7.1446533 -2.58609 10.889832 -10.341675 8.600647 -17.608063c4.4393616 -4.122864 5.8267517 -10.551727 3.4689636 -16.141327c4.507965 -5.2404175 4.507965 -12.996002 0 -18.306427c2.357788 -5.5904846 0.97039795 -12.018463 -3.4689636 -16.071304c2.2891846 -7.267273 -1.4559937 -15.09288 -8.600647 -17.67807c0.9017639 -8.384842 -5.618225 -15.652115 -14.0112915 -15.652115l-2.011139 0c-0.97128296 -0.69836426 -1.9425659 -1.3967285 -2.9138184 -2.0259705c-0.2076416 -1.8168182 -0.6932678 -3.5636292 -1.5950317 -5.240402l2.289154 -0.07002258l29.270966 13.485214c3.8842163 9.643326 13.248505 16.001282 23.583221 16.001282c4.7859497 0 9.57196 -1.3976135 13.595154 -3.9828186c3.190918 -1.9559479 5.0631104 -5.519562 4.924988 -9.293243c-0.27801514 -6.9171906 -3.329956 -13.485199 -8.462585 -18.097275l7.560791 -0.27915955c5.548767 -0.1400299 10.057617 -4.75119 10.057617 -10.410797c0 -5.660507 -4.369873 -10.34169 -9.988098 -10.551743l-43.69928 -1.815918c1.3179016 -3.563614 1.8730469 -7.407303 1.5959167 -11.180084c-0.27801514 -3.7036438 -2.5662842 -7.0572205 -5.9657288 -8.664886c-3.39859 -1.606781 -7.1437683 -2.4451752 -10.959351 -2.4451752z" fill-rule="evenodd"/></g><path fill="#000000" fill-opacity="0.0" d="m444.6095 234.85521l0 -37.871338" fill-rule="evenodd"/><path stroke="#db6902" stroke-width="7.763779527559055" stroke-miterlimit="77.8417" stroke-linecap="butt" d="m444.6095 234.85521l0 -37.871338" fill-rule="evenodd"/><path fill="#f2b03b" d="m444.6095 216.75793c-27.259796 0 -49.386993 26.342072 -49.386993 58.763855c0 32.490906 22.127197 58.763855 49.386993 58.763855c27.32843 0 49.455627 -26.27295 49.455627 -58.763855c0 -32.421783 -22.127197 -58.763855 -49.455627 -58.763855z" fill-rule="evenodd"/><path fill="#fb921d" d="m395.3615 271.81815c-2.0111694 0 -3.6765747 1.6767883 -3.6765747 3.7036438c0 2.0959778 1.6654053 3.772766 3.6765747 3.772766l98.564606 0c2.080658 0 3.7460938 -1.6767883 3.7460938 -3.772766c0 -2.0268555 -1.6654358 -3.7036438 -3.7460938 -3.7036438z" fill-rule="evenodd"/><path fill="#fb921d" d="m401.53488 242.26161c-2.080658 0 -3.6765747 1.6767883 -3.6765747 3.703659c0 2.0259705 1.5959167 3.7027435 3.6765747 3.7027435l86.28735 0c2.0111694 0 3.6765747 -1.6767731 3.6765747 -3.7027435l-0.069488525 0c0 -2.0268707 -1.5959167 -3.703659 -3.6765747 -3.703659z" fill-rule="evenodd"/><path fill="#fb921d" d="m429.69644 212.63507c-4.9249573 0 -4.9249573 7.476425 0 7.476425l29.964233 0c4.924988 0 4.924988 -7.476425 0 -7.476425z" fill-rule="evenodd"/><path fill="#fb921d" d="m397.58118 257.07532c-2.0111694 0 -3.6765747 1.606781 -3.6765747 3.7027588c0 2.026886 1.6654053 3.7036743 3.6765747 3.7036743l94.125275 0c2.080658 0 3.7460632 -1.6767883 3.7460632 -3.7036743c0 -2.0959778 -1.6654053 -3.7027588 -3.6765747 -3.7027588z" fill-rule="evenodd"/><path fill="#fb921d" d="m410.6907 227.44879c-2.0111694 0 -3.6766052 1.6767883 -3.6766052 3.7027588c0 2.096878 1.6654358 3.703659 3.6766052 3.703659l67.90622 0c2.0111694 0 3.6765747 -1.606781 3.6765747 -3.703659c0 -2.0259705 -1.6654053 -3.7027588 -3.6765747 -3.7027588z" fill-rule="evenodd"/><path fill="#fb921d" d="m401.53488 301.44467c-2.080658 0 -3.7460938 1.6767883 -3.7460938 3.7036438l0.06951904 0c0 2.0259705 1.5959167 3.7027588 3.6765747 3.7027588l86.217865 0c2.080658 0 3.6765747 -1.6767883 3.6765747 -3.7027588c0 -2.0268555 -1.5959167 -3.7036438 -3.6765747 -3.7036438z" fill-rule="evenodd"/><path fill="#fb921d" d="m429.69644 331.0012c-4.9249573 0 -4.9249573 7.47641 0 7.47641l29.964233 0c4.924988 0 4.924988 -7.47641 0 -7.47641z" fill-rule="evenodd"/><path fill="#fb921d" d="m397.58118 286.63184c-2.080658 0 -3.6765747 1.6767883 -3.6765747 3.7027588c0 2.026886 1.6654053 3.7036743 3.6765747 3.7036743l94.125275 0c2.080658 0 3.6765747 -1.6767883 3.6765747 -3.7036743c0 -2.0259705 -1.5959167 -3.7027588 -3.6765747 -3.7027588z" fill-rule="evenodd"/><path fill="#fb921d" d="m410.6907 316.2584c-2.0111694 0 -3.6766052 1.6067505 -3.6766052 3.7027588c0 2.0268555 1.6654358 3.7036438 3.6766052 3.7036438l67.90622 0c2.0111694 0 3.6765747 -1.6767883 3.6765747 -3.7036438c0 -2.0960083 -1.6654053 -3.7027588 -3.6765747 -3.7027588z" fill-rule="evenodd"/><path fill="#b4da3b" d="m485.918 172.85446c-8.399261 0 -15.863831 7.2134247 -15.089478 16.51294c2.1599731 1.0448608 4.381439 1.5242004 6.539612 1.5242004c8.376129 0 15.804138 -7.2134247 15.032471 -16.547058c-2.1412659 -1.0215149 -4.342224 -1.4900818 -6.482605 -1.4900818z" fill-rule="evenodd"/><path fill="#4f3b29" d="m477.9723 183.7078l-23.92984 13.276077l9.2948 0l14.63504 -13.276077z" fill-rule="evenodd"/><path fill="#b4da3b" d="m520.1157 211.50854c-2.7160034 0 -5.5023804 0.7468262 -8.085632 2.3841248c0.30743408 8.7331085 7.4815063 14.75267 15.209778 14.75267c2.7213745 0 5.512207 -0.7468262 8.096313 -2.385025c-0.35906982 -8.732208 -7.509094 -14.75177 -15.220459 -14.75177z" fill-rule="evenodd"/><path fill="#4f3b29" d="m471.93793 196.98387l57.502014 26.552124l-45.6409 -26.552124z" fill-rule="evenodd"/><path fill="#4f3b29" d="m359.77817 187.6206l0 27.669678l24.693512 -13.346069l160.02032 -4.9603424l-159.5347 -6.7080536l-25.179138 -2.6552124z" fill-rule="evenodd"/><path fill="#db6902" d="m444.05435 285.02417c-6.312378 0 -11.444977 12.577698 -11.444977 28.089783l22.889984 0c0 -15.512085 -5.1335144 -28.089783 -11.445007 -28.089783z" fill-rule="evenodd"/><g filter="url(#shadowFilter-gdb11e997e9_0_1205.5)"><use xlink:href="#gdb11e997e9_0_1205.5" transform="matrix(1.0 0.0 0.0 1.0 0.0 2.0)"/></g><defs><filter id="shadowFilter-gdb11e997e9_0_1205.5" filterUnits="userSpaceOnUse"><feGaussianBlur in="SourceAlpha" stdDeviation="2.0" result="blur"/><feComponentTransfer in="blur" color-interpolation-filters="sRGB"><feFuncR type="linear" slope="0" intercept="0.0"/><feFuncG type="linear" slope="0" intercept="0.0"/><feFuncB type="linear" slope="0" intercept="0.0"/><feFuncA type="linear" slope="0.59" intercept="0"/></feComponentTransfer></filter></defs><g id="gdb11e997e9_0_1205.5"><path fill="#ffffff" d="m573.04926 219.6012l0.09399414 -0.09458923l0.09399414 0.09458923l-0.18798828 0zm-14.07782 -14.97644l0 -0.21633911l0.10748291 0.108169556l-0.10748291 0.108169556zm-8.572144 33.462128c0.67285156 0.677063 1.6035767 1.1000671 2.6345825 1.1134796l0.04034424 -0.013412476c2.0687256 0 3.7209473 -1.6896667 3.7209473 -3.74411l1.8310547E-4 -3.4603424l0.45666504 -0.45951843c2.1088867 0.39193726 4.2581787 -0.2837677 5.776184 -1.811264c0.16119385 -0.16217041 0.3223877 -0.32435608 0.45672607 -0.5135193l0.75231934 -0.75704956l10.370361 10.4348755c3.5194702 3.5413513 9.228516 3.5549316 12.761475 0c3.5327759 -3.5547638 3.5194092 -9.299484 0 -12.840836l-3.6538086 -3.6765137c-0.043029785 -0.046020508 -0.08673096 -0.09136963 -0.13110352 -0.1360321c-0.38531494 -0.38768005 -0.82025146 -0.72340393 -1.2661133 -1.0263672l0 0l3.224121 0c1.585022 0 2.861267 -1.2841492 2.861267 -2.8790588l-1.8310547E-4 -1.784256c0 -0.79745483 -0.31896973 -1.5171509 -0.8345337 -2.0359344c-0.5154419 -0.5186157 -1.227478 -0.8363495 -2.0132446 -0.82954407l-6.86438 -0.013595581c0.7523804 -1.1082153 1.2761841 -2.3655396 1.5313721 -3.6765137l0.04034424 -0.12176514c0.6583252 -3.3655853 -0.40283203 -6.8393555 -2.807434 -9.258896c-2.404602 -2.4195404 -5.8568726 -3.4873352 -9.201843 -2.825058l-0.13433838 0.027175903c-1.1416626 0.22975159 -2.2567139 0.67585754 -3.2506104 1.2975616l-1.2207031E-4 -7.0828705c0.006713867 -0.7906647 -0.31225586 -1.5103455 -0.8295288 -2.0308228c-0.51708984 -0.5203247 -1.2324829 -0.8414459 -2.0182495 -0.83465576l-1.8000488 0c-1.5717163 -0.013412476 -2.8477783 1.2705688 -2.8479614 2.8656464l1.8310547E-4 3.2440033l0 0c-0.32250977 -0.51368713 -0.71203613 -0.98680115 -1.1419067 -1.4193268l-3.640442 -3.6631012c-3.5327759 -3.5547638 -9.25531 -3.5547638 -12.788269 1.6784668E-4c-3.5194702 3.5413513 -3.5194702 9.299484 0.013366699 12.854248l-0.013366699 0.013412476l10.370544 10.435043l-1.6255493 1.6356659l-0.14770508 0.14859009c-1.4240112 1.5137482 -2.0285645 3.6089325 -1.6791992 5.663376l-0.45666504 0.45951843l-3.4389648 1.6784668E-4c-2.0552368 0.013580322 -3.7210083 1.6896667 -3.734314 3.7575226c-1.8310547E-4 1.040802 0.41973877 1.9836273 1.0981445 2.6662903c0.6782837 0.6824951 1.6152954 1.1049957 2.6496582 1.1048279l5.3598633 0.013748169c0.5910034 0 1.18219 -0.18934631 1.6657104 -0.5406952c-0.34918213 0.4865265 -0.5508423 1.06781 -0.5508423 1.6625061l1.8310547E-4 5.379608c-0.006958008 1.0374146 0.4088745 1.9761505 1.0861816 2.6576233z" fill-rule="evenodd"/></g><path fill="#db6902" d="m577.4285 209.40967c0.510376 -2.459961 -0.24182129 -5.001251 -2.0015259 -6.771927c-1.7597656 -1.7706757 -4.2853394 -2.527542 -6.7301025 -2.0140228z" fill-rule="evenodd"/><path fill="#db6902" d="m571.9479 216.65454l1.2088623 -1.2164001l1.2626953 -1.2705536l0.69854736 -0.70288086l-10.45105 -10.516037l-0.2954712 0.29734802l-1.2627563 1.2705688l-1.6118774 1.6219177z" fill-rule="evenodd"/><path fill="#db6902" d="m565.6073 223.03455l0.7523804 -0.75704956l2.4179077 -2.432953l-10.45105 -10.516052l-2.0150757 2.0276184l-1.1551514 1.162384z" fill-rule="evenodd"/><path fill="#4f3b29" d="m563.1087 204.51659l1.2627563 -1.2705688l-2.3642578 -2.378952l0 -8.839966l-1.78656 -0.013580322l0 9.597z" fill-rule="evenodd"/><path fill="#4f3b29" d="m576.0313 218.33063l9.52417 -0.013580322l0 -1.7840881l-8.785278 0l-2.350769 -2.3653717l-1.2626953 1.2705536z" fill-rule="evenodd"/><path fill="#4f3b29" d="m575.1315 213.45113l0.3088379 -0.3107605c1.0075684 -1.0138092 1.7060547 -2.3113708 1.9882202 -3.7306976l-8.744934 -8.799362c-1.3972168 0.29734802 -2.6867676 1.0002136 -3.694336 2.0140228l-0.3088379 0.3107605z" fill-rule="evenodd"/><path fill="#4f3b29" d="m568.7776 219.84454l3.170288 -3.1900024l-10.45105 -10.516037l-3.170288 3.1899872z" fill-rule="evenodd"/><path fill="#4f3b29" d="m555.78766 222.39926c1.383667 -1.3651581 3.586792 -1.4463348 5.0508423 -0.13517761c0.06427002 0.05621338 0.1260376 0.11428833 0.1854248 0.174057c1.2949829 1.303009 1.4419556 3.394287 0.31158447 4.8676147l4.258301 -4.2848053l-10.4375 -10.502457l-4.5941772 4.6227417c1.4373779 -1.4463196 3.788269 -1.4599152 5.225647 -0.013580322c1.4507446 1.459732 1.4372559 3.8252716 -1.2207031E-4 5.2716064z" fill-rule="evenodd"/><path fill="#35a8e0" d="m576.6225 236.84859c2.404602 2.4195404 6.3135986 2.4331207 8.731689 0c2.404358 -2.4193726 2.404358 -6.3662415 -1.8310547E-4 -8.785782l-3.640503 -3.6631165c-1.1148682 -1.1217957 -2.6193848 -1.7706757 -4.204468 -1.8246765l-11.149353 -0.29751587l-2.1090698 2.1221924z" fill-rule="evenodd"/><path fill="#35a8e0" d="m554.2026 213.47813l2.095581 -2.108612l-0.28198242 -11.259323c-0.04034424 -1.5815125 -0.69873047 -3.1090088 -1.8135986 -4.2308044l-3.640442 -3.6631165c-2.4179077 -2.432953 -6.3269043 -2.4193726 -8.731506 1.6784668E-4c-2.4179077 2.4329681 -2.4313965 6.3662415 -0.0134887695 8.79921z" fill-rule="evenodd"/><path fill="#ececec" d="m550.57056 222.40079c0.20996094 0.21124268 0.4416504 0.39720154 0.6902466 0.5525818c1.4507446 0.865036 3.2909546 0.6622772 4.513489 -0.5135193c0.0134887695 -0.013595581 0.026855469 -0.027008057 0.04034424 -0.04058838c1.4373779 -1.4463348 1.4238892 -3.8118744 -0.0134887695 -5.258194c-1.4507446 -1.4597473 -3.788147 -1.4597473 -5.225525 -0.013412476c-0.0134887695 0.013580322 -0.026855469 0.026992798 -0.04034424 0.04058838c-1.1820068 1.2165527 -1.3835449 3.0682373 -0.52386475 4.5279694c0.16119385 0.25694275 0.34936523 0.4934845 0.55914307 0.7045746z" fill-rule="evenodd"/><path fill="#ececec" d="m555.7893 227.6724c0.20996094 0.21124268 0.4482422 0.3970337 0.71032715 0.55241394c1.4507446 0.8922119 3.3179932 0.6622772 4.5268555 -0.55410767c0.10748291 -0.108184814 0.22851562 -0.22993469 0.309021 -0.36494446c1.1418457 -1.4733276 1.0076904 -3.5819244 -0.3088379 -4.906662c-1.4373779 -1.4463348 -3.7746582 -1.446167 -5.225525 -0.013427734c-0.0134887695 0.013595581 -0.026855469 0.027008057 -0.04034424 0.04058838c-1.1820679 1.216568 -1.3970337 3.081833 -0.510376 4.541565c0.14770508 0.25694275 0.3289795 0.49331665 0.5388794 0.7045746z" fill-rule="evenodd"/><path fill="#4f3b29" d="m542.20905 225.81902c0.14886475 0.14978027 0.36297607 0.24639893 0.64263916 0.24317932l5.3461914 0l2.9956055 -3.0142365c0.026855469 -0.027008057 0.053833008 -0.0541687 0.06713867 -0.067596436c-0.25500488 -0.16217041 -0.49023438 -0.35134888 -0.7001953 -0.56259155c-0.20977783 -0.21109009 -0.39440918 -0.44441223 -0.54901123 -0.6943817l0 -0.027175903c-0.026794434 0.027008057 -0.053833008 0.0541687 -0.08062744 0.08117676l-2.4716187 2.4869537l-4.607666 0.013595581c-0.91589355 -0.010360718 -1.1300659 1.0504761 -0.64245605 1.5410767z" fill-rule="evenodd"/><path fill="#4f3b29" d="m552.4361 236.07133c0.16119385 0.16217041 0.38275146 0.2635498 0.62475586 0.2635498c0.48339844 0 0.8864136 -0.40551758 0.88653564 -0.89204407l0 -4.6499023l2.4716187 -2.486969c0.04034424 -0.013412476 0.06732178 -0.04057312 0.08062744 -0.0811615c-0.25531006 -0.14859009 -0.49023438 -0.3309784 -0.7001953 -0.54222107c-0.20996094 -0.21125793 -0.3945923 -0.45103455 -0.54901123 -0.71476746c-0.026794434 0.027008057 -0.053833008 0.0541687 -0.08062744 0.08117676l-2.9956055 3.0142365l0 5.3794403c0 0.24351501 0.10070801 0.4664917 0.26190186 0.6286621z" fill-rule="evenodd"/></g></svg>