<svg version="1.1" viewBox="0.0 0.0 960.0 540.0" fill="none" stroke="none" stroke-linecap="square" stroke-miterlimit="10" xmlns:xlink="http://www.w3.org/1999/xlink" xmlns="http://www.w3.org/2000/svg"><clipPath id="ge017c80c60_0_119.0"><path d="m0 0l960.0 0l0 540.0l-960.0 0l0 -540.0z" clip-rule="nonzero"/></clipPath><g clip-path="url(#ge017c80c60_0_119.0)"><path fill="#f2b03b" d="m0 0l960.0 0l0 540.0l-960.0 0z" fill-rule="evenodd"/><path fill="#f2b03b" d="m95.1857 432.19412c4.2643204 2.5352173 9.519676 2.7452087 13.967056 0.56518555c4.462799 -2.187561 7.516411 -6.470459 8.125328 -11.39444z" fill-rule="evenodd"/><path stroke="#4f3b29" stroke-width="2.0" stroke-linejoin="round" stroke-linecap="butt" d="m95.1857 432.19412c4.2643204 2.5352173 9.519676 2.7452087 13.967056 0.56518555c4.462799 -2.187561 7.516411 -6.470459 8.125328 -11.39444z" fill-rule="evenodd"/><path fill="#f2b03b" d="m85.16982 417.2176l1.4966354 3.0540466l1.5613403 3.1860657l0.8708801 1.7770996l26.408722 -12.945038l-0.366951 -0.7488098l-1.5613403 -3.1860657l-2.000557 -4.0823364z" fill-rule="evenodd"/><path stroke="#4f3b29" stroke-width="2.0" stroke-linejoin="round" stroke-linecap="butt" d="m85.16982 417.2176l1.4966354 3.0540466l1.5613403 3.1860657l0.8708801 1.7770996l26.408722 -12.945038l-0.366951 -0.7488098l-1.5613403 -3.1860657l-2.000557 -4.0823364z" fill-rule="evenodd"/><path fill="#f2b03b" d="m77.31967 401.1986l0.9280243 1.8937073l3.0008316 6.1235046l26.40873 -12.945068l-2.5040054 -5.1096497l-1.4248505 -2.9075623z" fill-rule="evenodd"/><path stroke="#4f3b29" stroke-width="2.0" stroke-linejoin="round" stroke-linecap="butt" d="m77.31967 401.1986l0.9280243 1.8937073l3.0008316 6.1235046l26.40873 -12.945068l-2.5040054 -5.1096497l-1.4248505 -2.9075623z" fill-rule="evenodd"/><path fill="#4f3b29" d="m113.57911 408.3549l1.5613403 3.1860657l5.9590607 -2.9210205l16.545433 5.6754456l1.1518707 -3.369812l-17.93676 -6.139679z" fill-rule="evenodd"/><path stroke="#4f3b29" stroke-width="2.0" stroke-linejoin="round" stroke-linecap="butt" d="m113.57911 408.3549l1.5613403 3.1860657l5.9590607 -2.9210205l16.545433 5.6754456l1.1518707 -3.369812l-17.93676 -6.139679z" fill-rule="evenodd"/><path fill="#4f3b29" d="m79.41538 423.82596l-6.137001 17.941376l3.3467178 1.1455688l5.6725388 -16.54834l5.9301605 -2.9068604l-1.5613403 -3.1860657z" fill-rule="evenodd"/><path stroke="#4f3b29" stroke-width="2.0" stroke-linejoin="round" stroke-linecap="butt" d="m79.41538 423.82596l-6.137001 17.941376l3.3467178 1.1455688l5.6725388 -16.54834l5.9301605 -2.9068604l-1.5613403 -3.1860657z" fill-rule="evenodd"/><path fill="#4f3b29" d="m89.10576 425.24927l0.38159943 0.7786865c1.2590866 2.569275 3.237976 4.7128296 5.705429 6.1806335l22.092377 -10.829254c0.35166168 -2.849701 -0.12999725 -5.7271423 -1.3890762 -8.296417l-0.38159943 -0.7786865z" fill-rule="evenodd"/><path stroke="#4f3b29" stroke-width="2.0" stroke-linejoin="round" stroke-linecap="butt" d="m89.10576 425.24927l0.38159943 0.7786865c1.2590866 2.569275 3.237976 4.7128296 5.705429 6.1806335l22.092377 -10.829254c0.35166168 -2.849701 -0.12999725 -5.7271423 -1.3890762 -8.296417l-0.38159943 -0.7786865z" fill-rule="evenodd"/><path fill="#4f3b29" d="m81.24853 409.21582l3.9212952 8.00177l26.40873 -12.945038l-3.9212952 -8.001801z" fill-rule="evenodd"/><path stroke="#4f3b29" stroke-width="2.0" stroke-linejoin="round" stroke-linecap="butt" d="m81.24853 409.21582l3.9212952 8.00177l26.40873 -12.945038l-3.9212952 -8.001801z" fill-rule="evenodd"/><path fill="#4f3b29" d="m84.83156 383.12952c1.7702789 3.6489868 0.27378845 8.061432 -3.3816147 9.853241c-3.3402023 1.6181946 -7.352455 0.52633667 -9.397263 -2.568573l5.2814484 10.777313l26.394272 -12.937958l-5.6847687 -11.600311c1.76931 3.6494446 0.26526642 8.046478 -3.3681335 9.846619c-3.6544418 1.7913513 -8.059212 0.27157593 -9.843941 -3.3703308z" fill-rule="evenodd"/><path stroke="#4f3b29" stroke-width="2.0" stroke-linejoin="round" stroke-linecap="butt" d="m84.83156 383.12952c1.7702789 3.6489868 0.27378845 8.061432 -3.3816147 9.853241c-3.3402023 1.6181946 -7.352455 0.52633667 -9.397263 -2.568573l5.2814484 10.777313l26.394272 -12.937958l-5.6847687 -11.600311c1.76931 3.6494446 0.26526642 8.046478 -3.3681335 9.846619c-3.6544418 1.7913513 -8.059212 0.27157593 -9.843941 -3.3703308z" fill-rule="evenodd"/><path fill="#35a8e0" d="m44.38392 413.0821c-6.092022 2.986206 -8.614784 10.35907 -5.6215096 16.467163c1.4319382 2.921997 3.9662743 5.1578064 7.050728 6.2144165c3.0920296 1.0696106 6.478798 0.84851074 9.40004 -0.58340454l9.189587 -4.504547c2.8326035 -1.3884888 5.0303497 -3.8139954 6.128601 -6.7738647l7.7163315 -20.80954l-2.611679 -5.3294067z" fill-rule="evenodd"/><path stroke="#4f3b29" stroke-width="2.0" stroke-linejoin="round" stroke-linecap="butt" d="m44.38392 413.0821c-6.092022 2.986206 -8.614784 10.35907 -5.6215096 16.467163c1.4319382 2.921997 3.9662743 5.1578064 7.050728 6.2144165c3.0920296 1.0696106 6.478798 0.84851074 9.40004 -0.58340454l9.189587 -4.504547c2.8326035 -1.3884888 5.0303497 -3.8139954 6.128601 -6.7738647l7.7163315 -20.80954l-2.611679 -5.3294067z" fill-rule="evenodd"/><path fill="#35a8e0" d="m102.54819 385.8452l2.6050644 5.3158875l21.215446 6.6636047c2.997467 0.9522095 6.260193 0.69989014 9.092789 -0.68859863l9.18959 -4.504547c2.9356995 -1.4390259 5.1712494 -3.9726868 6.219742 -7.07312c1.0550842 -3.0845032 0.85523987 -6.46463 -0.583786 -9.401123c-2.9861908 -6.0935974 -10.358734 -8.6171875 -16.472305 -5.6383667z" fill-rule="evenodd"/><path stroke="#4f3b29" stroke-width="2.0" stroke-linejoin="round" stroke-linecap="butt" d="m102.54819 385.8452l2.6050644 5.3158875l21.215446 6.6636047c2.997467 0.9522095 6.260193 0.69989014 9.092789 -0.68859863l9.18959 -4.504547c2.9356995 -1.4390259 5.1712494 -3.9726868 6.219742 -7.07312c1.0550842 -3.0845032 0.85523987 -6.46463 -0.583786 -9.401123c-2.9861908 -6.0935974 -10.358734 -8.6171875 -16.472305 -5.6383667z" fill-rule="evenodd"/><path fill="#ececec" d="m88.04892 373.3556c-0.48366547 0.23709106 -0.93045044 0.54452515 -1.3482056 0.8819885c-2.582901 2.158905 -3.3801498 5.7720337 -1.93367 8.796875c0.021728516 0.044311523 0.0358963 0.07324219 0.050064087 0.102142334c1.7918091 3.656372 6.18853 5.16214 9.843941 3.3703308c3.640953 -1.784729 5.1518936 -6.204254 3.3671646 -9.846161c-0.014167786 -0.028900146 -0.028335571 -0.05783081 -0.050056458 -0.102142334c-1.5042953 -2.996521 -4.8470764 -4.580261 -8.121109 -3.868225c-0.53608704 0.13009644 -1.0546951 0.29586792 -1.5383606 0.532959c-0.044319153 0.021728516 -0.08912659 0.044891357 -0.13394165 0.0680542c-0.04575348 0.021209717 -0.090545654 0.041992188 -0.13582611 0.06417847z" fill-rule="evenodd"/><path stroke="#4f3b29" stroke-width="2.0" stroke-linejoin="round" stroke-linecap="butt" d="m88.04892 373.3556c-0.48366547 0.23709106 -0.93045044 0.54452515 -1.3482056 0.8819885c-2.582901 2.158905 -3.3801498 5.7720337 -1.93367 8.796875c0.021728516 0.044311523 0.0358963 0.07324219 0.050064087 0.102142334c1.7918091 3.656372 6.18853 5.16214 9.843941 3.3703308c3.640953 -1.784729 5.1518936 -6.204254 3.3671646 -9.846161c-0.014167786 -0.028900146 -0.028335571 -0.05783081 -0.050056458 -0.102142334c-1.5042953 -2.996521 -4.8470764 -4.580261 -8.121109 -3.868225c-0.53608704 0.13009644 -1.0546951 0.29586792 -1.5383606 0.532959c-0.044319153 0.021728516 -0.08912659 0.044891357 -0.13394165 0.0680542c-0.04575348 0.021209717 -0.090545654 0.041992188 -0.13582611 0.06417847z" fill-rule="evenodd"/><path fill="#ececec" d="m74.9521 379.75986c-0.5289459 0.25927734 -1.028122 0.5768738 -1.4779129 0.9610901c-2.6118088 2.1730957 -3.3802414 5.845001 -1.8906937 8.8845825c0.13696289 0.27947998 0.28886414 0.55044556 0.45472717 0.8157654c2.044815 3.0948792 6.064621 4.2021484 9.397263 2.5685425c3.6544495 -1.7913208 5.1589813 -6.189789 3.3816223 -9.853241c-0.014167786 -0.028900146 -0.028335571 -0.05783081 -0.050064087 -0.102142334c-1.5197067 -2.9889526 -4.862488 -4.572693 -8.13652 -3.8606567c-0.5782318 0.11968994 -1.1504364 0.3272705 -1.678421 0.5860596z" fill-rule="evenodd"/><path stroke="#4f3b29" stroke-width="2.0" stroke-linejoin="round" stroke-linecap="butt" d="m74.9521 379.75986c-0.5289459 0.25927734 -1.028122 0.5768738 -1.4779129 0.9610901c-2.6118088 2.1730957 -3.3802414 5.845001 -1.8906937 8.8845825c0.13696289 0.27947998 0.28886414 0.55044556 0.45472717 0.8157654c2.044815 3.0948792 6.064621 4.2021484 9.397263 2.5685425c3.6544495 -1.7913208 5.1589813 -6.189789 3.3816223 -9.853241c-0.014167786 -0.028900146 -0.028335571 -0.05783081 -0.050064087 -0.102142334c-1.5197067 -2.9889526 -4.862488 -4.572693 -8.13652 -3.8606567c-0.5782318 0.11968994 -1.1504364 0.3272705 -1.678421 0.5860596z" fill-rule="evenodd"/><path fill="#4f3b29" d="m87.21115 355.3897c-0.40947723 0.20071411 -0.74246216 0.5599365 -0.9035721 1.0309448l-3.4278488 10.0563965l3.7130203 7.576782c0.028808594 0.058807373 0.057617188 0.11758423 0.100883484 0.169281c0.45590973 -0.3692932 0.95604706 -0.6873474 1.4840317 -0.946167c0.5289459 -0.25927734 1.1001816 -0.46636963 1.6793823 -0.58654785c-0.028808594 -0.058776855 -0.05025482 -0.13909912 -0.079063416 -0.1979065l-3.0650635 -6.254547l2.9558334 -8.6788025c0.32881927 -0.92611694 -0.1675415 -1.9389954 -1.1008759 -2.2464294c-0.46321106 -0.16497803 -0.94725037 -0.12371826 -1.3567276 0.07699585z" fill-rule="evenodd"/><path stroke="#4f3b29" stroke-width="2.0" stroke-linejoin="round" stroke-linecap="butt" d="m87.21115 355.3897c-0.40947723 0.20071411 -0.74246216 0.5599365 -0.9035721 1.0309448l-3.4278488 10.0563965l3.7130203 7.576782c0.028808594 0.058807373 0.057617188 0.11758423 0.100883484 0.169281c0.45590973 -0.3692932 0.95604706 -0.6873474 1.4840317 -0.946167c0.5289459 -0.25927734 1.1001816 -0.46636963 1.6793823 -0.58654785c-0.028808594 -0.058776855 -0.05025482 -0.13909912 -0.079063416 -0.1979065l-3.0650635 -6.254547l2.9558334 -8.6788025c0.32881927 -0.92611694 -0.1675415 -1.9389954 -1.1008759 -2.2464294c-0.46321106 -0.16497803 -0.94725037 -0.12371826 -1.3567276 0.07699585z" fill-rule="evenodd"/><path fill="#fb921d" d="m1.6032661 412.13864l21.29043 -37.606293l44.253788 0l21.290428 37.606293l-21.290428 37.606262l-44.253788 0z" fill-rule="evenodd"/><path stroke="#4f3b29" stroke-width="2.0" stroke-linejoin="round" stroke-linecap="butt" d="m1.6032661 412.13864l21.29043 -37.606293l44.253788 0l21.290428 37.606293l-21.290428 37.606262l-44.253788 0z" fill-rule="evenodd"/><path fill="#db6902" d="m1.6032661 487.31024l21.29043 -37.606293l44.253788 0l21.290428 37.606293l-21.290428 37.606262l-44.253788 0z" fill-rule="evenodd"/><path stroke="#4f3b29" stroke-width="2.0" stroke-linejoin="round" stroke-linecap="butt" d="m1.6032661 487.31024l21.29043 -37.606293l44.253788 0l21.290428 37.606293l-21.290428 37.606262l-44.253788 0z" fill-rule="evenodd"/><path fill="#db6902" d="m67.22926 375.14944l21.290436 -37.606293l44.253784 0l21.290436 37.606293l-21.290436 37.606262l-44.253784 0z" fill-rule="evenodd"/><path stroke="#4f3b29" stroke-width="2.0" stroke-linejoin="round" stroke-linecap="butt" d="m67.22926 375.14944l21.290436 -37.606293l44.253784 0l21.290436 37.606293l-21.290436 37.606262l-44.253784 0z" fill-rule="evenodd"/><path fill="#fb921d" d="m67.22926 450.321l21.290436 -37.606262l44.253784 0l21.290436 37.606262l-21.290436 37.606293l-44.253784 0z" fill-rule="evenodd"/><path stroke="#4f3b29" stroke-width="2.0" stroke-linejoin="round" stroke-linecap="butt" d="m67.22926 450.321l21.290436 -37.606262l44.253784 0l21.290436 37.606262l-21.290436 37.606293l-44.253784 0z" fill-rule="evenodd"/><path fill="#fb921d" d="m67.22926 525.4926l21.290436 -37.606262l44.253784 0l21.290436 37.606262l-21.290436 37.606323l-44.253784 0z" fill-rule="evenodd"/><path stroke="#4f3b29" stroke-width="2.0" stroke-linejoin="round" stroke-linecap="butt" d="m67.22926 525.4926l21.290436 -37.606262l44.253784 0l21.290436 37.606262l-21.290436 37.606323l-44.253784 0z" fill-rule="evenodd"/><path fill="#fb921d" d="m1.6032661 562.78015l21.29043 -37.606323l44.253788 0l21.290428 37.606323l-21.290428 37.606262l-44.253788 0z" fill-rule="evenodd"/><path stroke="#4f3b29" stroke-width="2.0" stroke-linejoin="round" stroke-linecap="butt" d="m1.6032661 562.78015l21.29043 -37.606323l44.253788 0l21.290428 37.606323l-21.290428 37.606262l-44.253788 0z" fill-rule="evenodd"/><path fill="#db6902" d="m-63.426132 375.44772l21.290428 -37.606262l44.253784 0l21.29043 37.606262l-21.29043 37.606293l-44.253784 0z" fill-rule="evenodd"/><path stroke="#4f3b29" stroke-width="2.0" stroke-linejoin="round" stroke-linecap="butt" d="m-63.426132 375.44772l21.290428 -37.606262l44.253784 0l21.29043 37.606262l-21.29043 37.606293l-44.253784 0z" fill-rule="evenodd"/><path fill="#fb921d" d="m-63.426132 450.61932l21.290428 -37.606262l44.253784 0l21.29043 37.606262l-21.29043 37.606293l-44.253784 0z" fill-rule="evenodd"/><path stroke="#4f3b29" stroke-width="2.0" stroke-linejoin="round" stroke-linecap="butt" d="m-63.426132 450.61932l21.290428 -37.606262l44.253784 0l21.29043 37.606262l-21.29043 37.606293l-44.253784 0z" fill-rule="evenodd"/><path fill="#db6902" d="m-63.426132 525.79095l21.290428 -37.606293l44.253784 0l21.29043 37.606293l-21.29043 37.606262l-44.253784 0z" fill-rule="evenodd"/><path stroke="#4f3b29" stroke-width="2.0" stroke-linejoin="round" stroke-linecap="butt" d="m-63.426132 525.79095l21.290428 -37.606293l44.253784 0l21.29043 37.606293l-21.29043 37.606262l-44.253784 0z" fill-rule="evenodd"/><path fill="#db6902" d="m132.85527 413.03354l21.29042 -37.606293l44.253784 0l21.290436 37.606293l-21.290436 37.606262l-44.253784 0z" fill-rule="evenodd"/><path stroke="#4f3b29" stroke-width="2.0" stroke-linejoin="round" stroke-linecap="butt" d="m132.85527 413.03354l21.29042 -37.606293l44.253784 0l21.290436 37.606293l-21.290436 37.606262l-44.253784 0z" fill-rule="evenodd"/><path fill="#fb921d" d="m132.85527 488.20514l21.29042 -37.606293l44.253784 0l21.290436 37.606293l-21.290436 37.606262l-44.253784 0z" fill-rule="evenodd"/><path stroke="#4f3b29" stroke-width="2.0" stroke-linejoin="round" stroke-linecap="butt" d="m132.85527 488.20514l21.29042 -37.606293l44.253784 0l21.290436 37.606293l-21.290436 37.606262l-44.253784 0z" fill-rule="evenodd"/><path fill="#db6902" d="m132.85527 563.3767l21.29042 -37.606262l44.253784 0l21.290436 37.606262l-21.290436 37.606323l-44.253784 0z" fill-rule="evenodd"/><path stroke="#4f3b29" stroke-width="2.0" stroke-linejoin="round" stroke-linecap="butt" d="m132.85527 563.3767l21.29042 -37.606262l44.253784 0l21.290436 37.606262l-21.290436 37.606323l-44.253784 0z" fill-rule="evenodd"/><path fill="#fb921d" d="m198.48126 525.79095l21.290436 -37.606293l44.253784 0l21.290436 37.606293l-21.290436 37.606262l-44.253784 0z" fill-rule="evenodd"/><path stroke="#4f3b29" stroke-width="2.0" stroke-linejoin="round" stroke-linecap="butt" d="m198.48126 525.79095l21.290436 -37.606293l44.253784 0l21.290436 37.606293l-21.290436 37.606262l-44.253784 0z" fill-rule="evenodd"/><path fill="#db6902" d="m263.90558 488.20514l21.290405 -37.606293l44.253784 0l21.290436 37.606293l-21.290436 37.606262l-44.253784 0z" fill-rule="evenodd"/><path stroke="#4f3b29" stroke-width="2.0" stroke-linejoin="round" stroke-linecap="butt" d="m263.90558 488.20514l21.290405 -37.606293l44.253784 0l21.290436 37.606293l-21.290436 37.606262l-44.253784 0z" fill-rule="evenodd"/><path fill="#fb921d" d="m263.90558 563.3767l21.290405 -37.606262l44.253784 0l21.290436 37.606262l-21.290436 37.606323l-44.253784 0z" fill-rule="evenodd"/><path stroke="#4f3b29" stroke-width="2.0" stroke-linejoin="round" stroke-linecap="butt" d="m263.90558 563.3767l21.290405 -37.606262l44.253784 0l21.290436 37.606262l-21.290436 37.606323l-44.253784 0z" fill-rule="evenodd"/><path fill="#db6902" d="m329.70486 450.321l21.290436 -37.606262l44.253784 0l21.290436 37.606262l-21.290436 37.606293l-44.253784 0z" fill-rule="evenodd"/><path stroke="#4f3b29" stroke-width="2.0" stroke-linejoin="round" stroke-linecap="butt" d="m329.70486 450.321l21.290436 -37.606262l44.253784 0l21.290436 37.606262l-21.290436 37.606293l-44.253784 0z" fill-rule="evenodd"/><path fill="#fb921d" d="m395.62918 413.03354l21.290405 -37.606293l44.253784 0l21.290436 37.606293l-21.290436 37.606262l-44.253784 0z" fill-rule="evenodd"/><path stroke="#4f3b29" stroke-width="2.0" stroke-linejoin="round" stroke-linecap="butt" d="m395.62918 413.03354l21.290405 -37.606293l44.253784 0l21.290436 37.606293l-21.290436 37.606262l-44.253784 0z" fill-rule="evenodd"/><path fill="#db6902" d="m395.62918 563.3767l21.290405 -37.606262l44.253784 0l21.290436 37.606262l-21.290436 37.606323l-44.253784 0z" fill-rule="evenodd"/><path stroke="#4f3b29" stroke-width="2.0" stroke-linejoin="round" stroke-linecap="butt" d="m395.62918 563.3767l21.290405 -37.606262l44.253784 0l21.290436 37.606262l-21.290436 37.606323l-44.253784 0z" fill-rule="evenodd"/><path fill="#fb921d" d="m461.55347 375.14944l21.290436 -37.606293l44.253754 0l21.290466 37.606293l-21.290466 37.606262l-44.253754 0z" fill-rule="evenodd"/><path stroke="#4f3b29" stroke-width="2.0" stroke-linejoin="round" stroke-linecap="butt" d="m461.55347 375.14944l21.290436 -37.606293l44.253754 0l21.290466 37.606293l-21.290466 37.606262l-44.253754 0z" fill-rule="evenodd"/><path fill="#db6902" d="m461.55347 450.321l21.290436 -37.606262l44.253754 0l21.290466 37.606262l-21.290466 37.606293l-44.253754 0z" fill-rule="evenodd"/><path stroke="#4f3b29" stroke-width="2.0" stroke-linejoin="round" stroke-linecap="butt" d="m461.55347 450.321l21.290436 -37.606262l44.253754 0l21.290466 37.606262l-21.290466 37.606293l-44.253754 0z" fill-rule="evenodd"/><path fill="#fb921d" d="m461.55347 525.4926l21.290436 -37.606262l44.253754 0l21.290466 37.606262l-21.290466 37.606323l-44.253754 0z" fill-rule="evenodd"/><path stroke="#4f3b29" stroke-width="2.0" stroke-linejoin="round" stroke-linecap="butt" d="m461.55347 525.4926l21.290436 -37.606262l44.253754 0l21.290466 37.606262l-21.290466 37.606323l-44.253754 0z" fill-rule="evenodd"/><path fill="#db6902" d="m527.17944 413.03354l21.290466 -37.606293l44.253784 0l21.290405 37.606293l-21.290405 37.606262l-44.253784 0z" fill-rule="evenodd"/><path stroke="#4f3b29" stroke-width="2.0" stroke-linejoin="round" stroke-linecap="butt" d="m527.17944 413.03354l21.290466 -37.606293l44.253784 0l21.290405 37.606293l-21.290405 37.606262l-44.253784 0z" fill-rule="evenodd"/><path fill="#fb921d" d="m527.17944 488.20514l21.290466 -37.606293l44.253784 0l21.290405 37.606293l-21.290405 37.606262l-44.253784 0z" fill-rule="evenodd"/><path stroke="#4f3b29" stroke-width="2.0" stroke-linejoin="round" stroke-linecap="butt" d="m527.17944 488.20514l21.290466 -37.606293l44.253784 0l21.290405 37.606293l-21.290405 37.606262l-44.253784 0z" fill-rule="evenodd"/><path fill="#db6902" d="m527.17944 563.3767l21.290466 -37.606262l44.253784 0l21.290405 37.606262l-21.290405 37.606323l-44.253784 0z" fill-rule="evenodd"/><path stroke="#4f3b29" stroke-width="2.0" stroke-linejoin="round" stroke-linecap="butt" d="m527.17944 563.3767l21.290466 -37.606262l44.253784 0l21.290405 37.606262l-21.290405 37.606323l-44.253784 0z" fill-rule="evenodd"/><path fill="#fb921d" d="m593.10376 525.4926l21.290466 -37.606262l44.253784 0l21.290405 37.606262l-21.290405 37.606323l-44.253784 0z" fill-rule="evenodd"/><path stroke="#4f3b29" stroke-width="2.0" stroke-linejoin="round" stroke-linecap="butt" d="m593.10376 525.4926l21.290466 -37.606262l44.253784 0l21.290405 37.606262l-21.290405 37.606323l-44.253784 0z" fill-rule="evenodd"/><path fill="#db6902" d="m658.43146 488.20514l21.290466 -37.606293l44.253784 0l21.290405 37.606293l-21.290405 37.606262l-44.253784 0z" fill-rule="evenodd"/><path stroke="#4f3b29" stroke-width="2.0" stroke-linejoin="round" stroke-linecap="butt" d="m658.43146 488.20514l21.290466 -37.606293l44.253784 0l21.290405 37.606293l-21.290405 37.606262l-44.253784 0z" fill-rule="evenodd"/><path fill="#fb921d" d="m658.43146 563.3767l21.290466 -37.606262l44.253784 0l21.290405 37.606262l-21.290405 37.606323l-44.253784 0z" fill-rule="evenodd"/><path stroke="#4f3b29" stroke-width="2.0" stroke-linejoin="round" stroke-linecap="butt" d="m658.43146 563.3767l21.290466 -37.606262l44.253784 0l21.290405 37.606262l-21.290405 37.606323l-44.253784 0z" fill-rule="evenodd"/><path fill="#fb921d" d="m724.0575 450.321l21.290405 -37.606262l44.253784 0l21.290405 37.606262l-21.290405 37.606293l-44.253784 0z" fill-rule="evenodd"/><path stroke="#4f3b29" stroke-width="2.0" stroke-linejoin="round" stroke-linecap="butt" d="m724.0575 450.321l21.290405 -37.606262l44.253784 0l21.290405 37.606262l-21.290405 37.606293l-44.253784 0z" fill-rule="evenodd"/><path fill="#db6902" d="m724.0575 525.4926l21.290405 -37.606262l44.253784 0l21.290405 37.606262l-21.290405 37.606323l-44.253784 0z" fill-rule="evenodd"/><path stroke="#4f3b29" stroke-width="2.0" stroke-linejoin="round" stroke-linecap="butt" d="m724.0575 525.4926l21.290405 -37.606262l44.253784 0l21.290405 37.606262l-21.290405 37.606323l-44.253784 0z" fill-rule="evenodd"/><path fill="#fb921d" d="m789.6835 413.03354l21.290405 -37.606293l44.253784 0l21.290466 37.606293l-21.290466 37.606262l-44.253784 0z" fill-rule="evenodd"/><path stroke="#4f3b29" stroke-width="2.0" stroke-linejoin="round" stroke-linecap="butt" d="m789.6835 413.03354l21.290405 -37.606293l44.253784 0l21.290466 37.606293l-21.290466 37.606262l-44.253784 0z" fill-rule="evenodd"/><path fill="#db6902" d="m789.6835 488.20514l21.290405 -37.606293l44.253784 0l21.290466 37.606293l-21.290466 37.606262l-44.253784 0z" fill-rule="evenodd"/><path stroke="#4f3b29" stroke-width="2.0" stroke-linejoin="round" stroke-linecap="butt" d="m789.6835 488.20514l21.290405 -37.606293l44.253784 0l21.290466 37.606293l-21.290466 37.606262l-44.253784 0z" fill-rule="evenodd"/><path fill="#fb921d" d="m789.6835 563.3767l21.290405 -37.606262l44.253784 0l21.290466 37.606262l-21.290466 37.606323l-44.253784 0z" fill-rule="evenodd"/><path stroke="#4f3b29" stroke-width="2.0" stroke-linejoin="round" stroke-linecap="butt" d="m789.6835 563.3767l21.290405 -37.606262l44.253784 0l21.290466 37.606262l-21.290466 37.606323l-44.253784 0z" fill-rule="evenodd"/><path fill="#db6902" d="m855.30945 375.14944l21.290466 -37.606293l44.253784 0l21.290405 37.606293l-21.290405 37.606262l-44.253784 0z" fill-rule="evenodd"/><path stroke="#4f3b29" stroke-width="2.0" stroke-linejoin="round" stroke-linecap="butt" d="m855.30945 375.14944l21.290466 -37.606293l44.253784 0l21.290405 37.606293l-21.290405 37.606262l-44.253784 0z" fill-rule="evenodd"/><path fill="#fb921d" d="m855.30945 450.321l21.290466 -37.606262l44.253784 0l21.290405 37.606262l-21.290405 37.606293l-44.253784 0z" fill-rule="evenodd"/><path stroke="#4f3b29" stroke-width="2.0" stroke-linejoin="round" stroke-linecap="butt" d="m855.30945 450.321l21.290466 -37.606262l44.253784 0l21.290405 37.606262l-21.290405 37.606293l-44.253784 0z" fill-rule="evenodd"/><path fill="#db6902" d="m855.30945 525.79095l21.290466 -37.606293l44.253784 0l21.290405 37.606293l-21.290405 37.606262l-44.253784 0z" fill-rule="evenodd"/><path stroke="#4f3b29" stroke-width="2.0" stroke-linejoin="round" stroke-linecap="butt" d="m855.30945 525.79095l21.290466 -37.606293l44.253784 0l21.290405 37.606293l-21.290405 37.606262l-44.253784 0z" fill-rule="evenodd"/><path fill="#fb921d" d="m921.53204 488.20514l21.290466 -37.606293l44.253784 0l21.290405 37.606293l-21.290405 37.606262l-44.253784 0z" fill-rule="evenodd"/><path stroke="#4f3b29" stroke-width="2.0" stroke-linejoin="round" stroke-linecap="butt" d="m921.53204 488.20514l21.290466 -37.606293l44.253784 0l21.290405 37.606293l-21.290405 37.606262l-44.253784 0z" fill-rule="evenodd"/><path fill="#db6902" d="m921.53204 563.3767l21.290466 -37.606262l44.253784 0l21.290405 37.606262l-21.290405 37.606323l-44.253784 0z" fill-rule="evenodd"/><path stroke="#4f3b29" stroke-width="2.0" stroke-linejoin="round" stroke-linecap="butt" d="m921.53204 563.3767l21.290466 -37.606262l44.253784 0l21.290405 37.606262l-21.290405 37.606323l-44.253784 0z" fill-rule="evenodd"/><path fill="#fb921d" d="m987.75464 375.74603l21.290466 -37.606293l44.253723 0l21.290527 37.606293l-21.290527 37.606293l-44.253723 0z" fill-rule="evenodd"/><path stroke="#4f3b29" stroke-width="2.0" stroke-linejoin="round" stroke-linecap="butt" d="m987.75464 375.74603l21.290466 -37.606293l44.253723 0l21.290527 37.606293l-21.290527 37.606293l-44.253723 0z" fill-rule="evenodd"/><path fill="#fb921d" d="m263.90558 412.68692l21.290405 -37.606262l44.253784 0l21.290436 37.606262l-21.290436 37.606293l-44.253784 0z" fill-rule="evenodd"/><path stroke="#4f3b29" stroke-width="2.0" stroke-linejoin="round" stroke-linecap="butt" d="m263.90558 412.68692l21.290405 -37.606262l44.253784 0l21.290436 37.606262l-21.290436 37.606293l-44.253784 0z" fill-rule="evenodd"/><path fill="#fb921d" d="m198.77957 375.44772l21.29042 -37.606262l44.2538 0l21.290405 37.606262l-21.290405 37.606293l-44.2538 0z" fill-rule="evenodd"/><path stroke="#4f3b29" stroke-width="2.0" stroke-linejoin="round" stroke-linecap="butt" d="m198.77957 375.44772l21.29042 -37.606262l44.2538 0l21.290405 37.606262l-21.290405 37.606293l-44.2538 0z" fill-rule="evenodd"/><path fill="#db6902" d="m724.0575 375.00027l21.290405 -37.606262l44.253784 0l21.290405 37.606262l-21.290405 37.606293l-44.253784 0z" fill-rule="evenodd"/><path stroke="#4f3b29" stroke-width="2.0" stroke-linejoin="round" stroke-linecap="butt" d="m724.0575 375.00027l21.290405 -37.606262l44.253784 0l21.290405 37.606262l-21.290405 37.606293l-44.253784 0z" fill-rule="evenodd"/><path fill="#fb921d" d="m921.53204 337.86194l21.290466 -37.606293l44.253784 0l21.290405 37.606293l-21.290405 37.606262l-44.253784 0z" fill-rule="evenodd"/><path stroke="#4f3b29" stroke-width="2.0" stroke-linejoin="round" stroke-linecap="butt" d="m921.53204 337.86194l21.290466 -37.606293l44.253784 0l21.290405 37.606293l-21.290405 37.606262l-44.253784 0z" fill-rule="evenodd"/><path fill="#db6902" d="m921.53204 413.03354l21.290466 -37.606293l44.253784 0l21.290405 37.606293l-21.290405 37.606262l-44.253784 0z" fill-rule="evenodd"/><path stroke="#4f3b29" stroke-width="2.0" stroke-linejoin="round" stroke-linecap="butt" d="m921.53204 413.03354l21.290466 -37.606293l44.253784 0l21.290405 37.606293l-21.290405 37.606262l-44.253784 0z" fill-rule="evenodd"/><path fill="#db6902" d="m-63.926132 300.05453l21.290428 -37.606293l44.253784 0l21.29043 37.606293l-21.29043 37.606262l-44.253784 0z" fill-rule="evenodd"/><path stroke="#4f3b29" stroke-width="2.0" stroke-linejoin="round" stroke-linecap="butt" d="m-63.926132 300.05453l21.290428 -37.606293l44.253784 0l21.29043 37.606293l-21.29043 37.606262l-44.253784 0z" fill-rule="evenodd"/><path fill="#fb921d" d="m593.05347 450.321l21.290405 -37.606262l44.253784 0l21.290466 37.606262l-21.290466 37.606293l-44.253784 0z" fill-rule="evenodd"/><path stroke="#4f3b29" stroke-width="2.0" stroke-linejoin="round" stroke-linecap="butt" d="m593.05347 450.321l21.290405 -37.606262l44.253784 0l21.290466 37.606262l-21.290466 37.606293l-44.253784 0z" fill-rule="evenodd"/><path fill="#fb921d" d="m67.22926 0.4926294l21.290436 -37.60628l44.253784 0l21.290436 37.60628l-21.290436 37.60628l-44.253784 0z" fill-rule="evenodd"/><path stroke="#4f3b29" stroke-width="2.0" stroke-linejoin="round" stroke-linecap="butt" d="m67.22926 0.4926294l21.290436 -37.60628l44.253784 0l21.290436 37.60628l-21.290436 37.60628l-44.253784 0z" fill-rule="evenodd"/><path fill="#fb921d" d="m1.6032661 37.78013l21.29043 -37.60628l44.253788 0l21.290428 37.60628l-21.290428 37.606285l-44.253788 0z" fill-rule="evenodd"/><path stroke="#4f3b29" stroke-width="2.0" stroke-linejoin="round" stroke-linecap="butt" d="m1.6032661 37.78013l21.29043 -37.60628l44.253788 0l21.290428 37.60628l-21.290428 37.606285l-44.253788 0z" fill-rule="evenodd"/><path fill="#db6902" d="m-63.426132 0.7909294l21.290428 -37.60628l44.253784 0l21.29043 37.60628l-21.29043 37.606285l-44.253784 0z" fill-rule="evenodd"/><path stroke="#4f3b29" stroke-width="2.0" stroke-linejoin="round" stroke-linecap="butt" d="m-63.426132 0.7909294l21.290428 -37.60628l44.253784 0l21.29043 37.60628l-21.29043 37.606285l-44.253784 0z" fill-rule="evenodd"/><path fill="#db6902" d="m132.85527 38.376728l21.29042 -37.60628l44.253784 0l21.290436 37.60628l-21.290436 37.60628l-44.253784 0z" fill-rule="evenodd"/><path stroke="#4f3b29" stroke-width="2.0" stroke-linejoin="round" stroke-linecap="butt" d="m132.85527 38.376728l21.29042 -37.60628l44.253784 0l21.290436 37.60628l-21.290436 37.60628l-44.253784 0z" fill-rule="evenodd"/><path fill="#fb921d" d="m891.22925 75.94784l21.290466 -37.60628l44.253784 0l21.290405 37.60628l-21.290405 37.606285l-44.253784 0z" fill-rule="evenodd"/><path stroke="#4f3b29" stroke-width="2.0" stroke-linejoin="round" stroke-linecap="butt" d="m891.22925 75.94784l21.290466 -37.60628l44.253784 0l21.290405 37.60628l-21.290405 37.606285l-44.253784 0z" fill-rule="evenodd"/><path fill="#fb921d" d="m891.22925 0.4926294l21.290466 -37.60628l44.253784 0l21.290405 37.60628l-21.290405 37.60628l-44.253784 0z" fill-rule="evenodd"/><path stroke="#4f3b29" stroke-width="2.0" stroke-linejoin="round" stroke-linecap="butt" d="m891.22925 0.4926294l21.290466 -37.60628l44.253784 0l21.290405 37.60628l-21.290405 37.60628l-44.253784 0z" fill-rule="evenodd"/><path fill="#fb921d" d="m825.6033 37.78013l21.290405 -37.60628l44.253784 0l21.290466 37.60628l-21.290466 37.606285l-44.253784 0z" fill-rule="evenodd"/><path stroke="#4f3b29" stroke-width="2.0" stroke-linejoin="round" stroke-linecap="butt" d="m825.6033 37.78013l21.290405 -37.60628l44.253784 0l21.290466 37.60628l-21.290466 37.606285l-44.253784 0z" fill-rule="evenodd"/><path fill="#db6902" d="m760.57385 0.7909294l21.290466 -37.60628l44.253784 0l21.290405 37.60628l-21.290405 37.606285l-44.253784 0z" fill-rule="evenodd"/><path stroke="#4f3b29" stroke-width="2.0" stroke-linejoin="round" stroke-linecap="butt" d="m760.57385 0.7909294l21.290466 -37.60628l44.253784 0l21.290405 37.60628l-21.290405 37.606285l-44.253784 0z" fill-rule="evenodd"/><g filter="url(#shadowFilter-ge017c80c60_0_119.1)"><use xlink:href="#ge017c80c60_0_119.1" transform="matrix(1.0 0.0 0.0 1.0 0.0 2.0)"/></g><defs><filter id="shadowFilter-ge017c80c60_0_119.1" filterUnits="userSpaceOnUse"><feGaussianBlur in="SourceAlpha" stdDeviation="2.0" result="blur"/><feComponentTransfer in="blur" color-interpolation-filters="sRGB"><feFuncR type="linear" slope="0" intercept="0.0"/><feFuncG type="linear" slope="0" intercept="0.0"/><feFuncB type="linear" slope="0" intercept="0.0"/><feFuncA type="linear" slope="0.59" intercept="0"/></feComponentTransfer></filter></defs><g id="ge017c80c60_0_119.1"><path fill="#ffffff" d="m82.68335 230.16844l-0.15657043 0.2211914l-0.2211914 -0.15657043l0.37776184 -0.06462097zm33.402603 25.068008l0.073898315 0.4320221l-0.2529602 -0.17906189l0.17906189 -0.2529602zm5.7944107 -69.767075c-1.5832901 -1.120758 -3.5979538 -1.6455688 -5.6741486 -1.3180084l-0.07646179 0.040649414c-4.156784 0.71102905 -6.8994904 4.6530304 -6.1977463 8.755554l1.181633 6.9100494l-0.76065826 1.074585c-4.3713684 -0.05783081 -8.459099 2.030182 -10.9876175 5.6022186c-0.2684555 0.37924194 -0.5369034 0.7584839 -0.742218 1.1824188l-1.2531509 1.7703247l-24.401794 -17.273178c-8.281387 -5.8621063 -19.757362 -3.9270325 -25.64196 4.3861237c-5.8843155 8.312775 -3.8952675 19.779861 4.3861275 25.641968l8.597492 6.085861c0.102191925 0.07710266 0.20550919 0.15263367 0.30994797 0.2265625c0.9066086 0.64175415 1.8951645 1.1626892 2.8945694 1.6144104l0 0l-6.4783134 1.1081238c-3.1848984 0.54478455 -5.3105927 3.54776 -4.765808 6.7326508l0.60980225 3.5629425c0.27239227 1.592453 1.1591301 2.9199677 2.3723106 3.7787323c1.2127838 0.85849 2.7520065 1.24823 4.3285713 0.9645996l13.797501 -2.3321838c-1.1332016 2.4716034 -1.7563171 5.1624146 -1.8212509 7.8680267l-0.0394516 0.25700378c-0.17325592 6.9470367 3.145607 13.519089 8.803673 17.524246c5.658066 4.0051575 12.959587 4.950897 19.454483 2.4786987l0.260643 -0.10040283c2.2155838 -0.8512268 4.303688 -2.1253052 6.088333 -3.708374l2.4196854 14.143768c0.25650787 1.5812073 1.1432419 2.908722 2.3603973 3.7702942c1.2167511 0.8612976 2.763916 1.2566833 4.3404846 0.973053l3.6169205 -0.61868286c3.1626892 -0.51342773 5.288109 -3.5159912 4.743599 -6.701294l-1.1084137 -6.4779053l0 0c0.8235016 0.9149475 1.7677689 1.7258301 2.779213 2.441803l8.566124 6.0636597c8.312759 5.884308 19.811218 3.91745 25.695816 -4.395691c5.8621063 -8.281403 3.8952637 -19.779877 -4.4174957 -25.664185l0.022201538 -0.03137207l-24.402176 -17.273453l2.7075653 -3.824997l0.24597168 -0.34747314c2.3443298 -3.5122528 2.8433533 -7.9039307 1.4396515 -11.886383l0.76065063 -1.074585l6.9099426 -1.182312c4.1250153 -0.7335205 6.8994904 -4.6530304 6.2199554 -8.786926c-0.35517883 -2.0784454 -1.5209198 -3.8168488 -3.1173096 -4.946884c-1.5960083 -1.1297455 -3.6230469 -1.6513977 -5.7013702 -1.2955475l-10.774429 1.8147125c-1.1875458 0.20314026 -2.3107681 0.7844391 -3.1623 1.6522369c0.5354309 -1.0915527 0.7421112 -2.32164 0.5389786 -3.509201l-1.8378906 -10.742523c-0.34044647 -2.0739899 -1.496666 -3.8056488 -3.0902786 -4.933716z" fill-rule="evenodd"/></g><path fill="#f2b03b" d="m77.36503 252.02516c-0.18519592 5.087723 2.1942596 9.903946 6.3349533 12.835007c4.1406937 2.9310303 9.4739685 3.5744019 14.210876 1.7086792z" fill-rule="evenodd"/><path fill="#f2b03b" d="m85.90287 235.67409l-2.0135345 2.8445282l-2.1032028 2.9711914l-1.1634827 1.6436615l24.591606 17.407547l0.4922104 -0.695343l2.1032104 -2.971222l2.6848068 -3.7928162z" fill-rule="evenodd"/><path fill="#f2b03b" d="m96.46389 220.75456l-1.2531586 1.7703247l-4.0273514 5.689438l24.591614 17.407547l3.3563614 -4.7415314l1.9241409 -2.7182312z" fill-rule="evenodd"/><path fill="#4f3b29" d="m107.80968 256.87445l-2.1032104 2.971222l5.563156 3.9379578l3.0195236 17.652588l3.594429 -0.58691406l-3.2781067 -19.164337z" fill-rule="evenodd"/><path fill="#4f3b29" d="m77.12531 233.73059l-19.132557 3.3005981l0.6094017 3.5626678l17.652588 -3.019516l5.5313873 3.9154663l2.1032028 -2.9711914z" fill-rule="evenodd"/><path fill="#4f3b29" d="m80.60016 243.16524l-0.51441956 0.7267151c-1.6781769 2.370758 -2.638527 5.2019653 -2.7207108 8.133209l20.577202 14.565872c2.705902 -1.0740051 5.056938 -2.9207764 6.7351227 -5.2915344l0.51441956 -0.7267151z" fill-rule="evenodd"/><path fill="#4f3b29" d="m91.18338 228.21432l-5.28051 7.4597626l24.591614 17.407547l5.28051 -7.4597626z" fill-rule="evenodd"/><path fill="#4f3b29" d="m116.411865 218.64813c-2.3140411 3.2016754 -6.713028 4.1209564 -10.102646 2.0059052c-0.14839935 -0.09013367 -0.29235077 -0.18489075 -0.4321289 -0.28382874c-3.0470505 -2.1569061 -4.0567474 -6.282486 -2.2886581 -9.613113l-7.0927734 10.0199585l24.559837 17.385056l7.652176 -10.810211c-2.3941498 3.3822174 -7.1132812 4.2173615 -10.495491 1.8232117c-3.4135818 -2.4163666 -4.1944656 -7.1447754 -1.8003159 -10.526978z" fill-rule="evenodd"/><path fill="#35a8e0" d="m69.61212 196.95512c-5.658066 -4.005142 -13.517117 -2.6887665 -17.54475 3.001068c-4.0048637 5.657669 -2.6567078 13.539215 3.001358 17.544357l8.56612 6.0636597c2.6233292 1.8569641 5.8681107 2.6355743 9.071457 2.1986237l22.504425 -3.2379456l3.5129395 -4.9627075z" fill-rule="evenodd"/><path fill="#35a8e0" d="m122.64401 235.91803l-3.490448 4.9309387l4.412567 22.386932c0.62125397 3.1442566 2.465866 5.968231 5.0891876 7.8251953l8.566132 6.0636597c5.689438 4.0273743 13.5392 2.6567078 17.544342 -3.0013428c4.027359 -5.689453 2.710968 -13.548492 -2.9784698 -17.575836z" fill-rule="evenodd"/><path fill="#ececec" d="m126.89417 216.85196c-0.4940033 -0.34968567 -1.0231171 -0.6413727 -1.5756989 -0.86621094c-3.2104492 -1.2288055 -6.838814 -0.19142151 -8.893684 2.5767517c-0.022491455 0.0317688 -0.044692993 0.06314087 -0.06718445 0.09490967c-2.3941498 3.3822174 -1.5590057 8.101334 1.823204 10.495483c3.4135818 2.4163666 8.110222 1.6129913 10.504372 -1.7692261c0.022491455 -0.0317688 0.044692993 -0.06314087 0.06718445 -0.09490967c1.9595642 -2.8356323 1.7319641 -6.602524 -0.49406433 -9.222015c-0.41160583 -0.45767212 -0.8705139 -0.8653717 -1.3641281 -1.2147827z" fill-rule="evenodd"/><path fill="#ececec" d="m114.60729 208.11874c-0.49401093 -0.34970093 -1.0362854 -0.6387787 -1.6159973 -0.8589783c-3.2197266 -1.2830505 -6.893074 -0.1821289 -8.906609 2.662384c-0.17906189 0.2529602 -0.38061523 0.5376892 -0.49625397 0.8349457c-1.7911453 3.3345642 -0.8013077 7.4991455 2.2965698 9.692032c3.3822098 2.3941498 8.078453 1.5904999 10.504372 -1.7692261c0.022491455 -0.0317688 0.044692993 -0.06314087 0.06718445 -0.09490967c1.9595566 -2.8356323 1.7544556 -6.6342926 -0.52583313 -9.244507c-0.3844757 -0.4623108 -0.829422 -0.87205505 -1.3234329 -1.2217407z" fill-rule="evenodd"/><path fill="#4f3b29" d="m142.52768 207.15219c-0.3502655 -0.2479248 -0.81359863 -0.36727905 -1.3743896 -0.26470947l-10.742249 1.8374786l-4.9895706 7.048767c-0.044692993 0.06314087 -0.089668274 0.12667847 -0.11187744 0.15805054c0.5677872 0.2361908 1.1051178 0.5330963 1.5991287 0.88279724c0.49360657 0.349411 0.94429016 0.75187683 1.3403015 1.1979218l0.009277344 0.054244995c0.044692993 -0.06314087 0.0896759 -0.12667847 0.1343689 -0.18981934l4.116745 -5.8157196l9.253677 -1.6107788c1.8438721 -0.29411316 1.9118347 -2.4861298 0.7645874 -3.298233z" fill-rule="evenodd"/><path fill="#4f3b29" d="m118.47614 190.1943c-0.37924194 -0.26844788 -0.85912323 -0.3947296 -1.3454056 -0.31155396c-0.97119904 0.16612244 -1.6424713 1.1144257 -1.4766312 2.086029l1.5883026 9.285446l-4.116745 5.8157196c-0.07646179 0.040649414 -0.12143707 0.10418701 -0.1343689 0.18981934c0.5638275 0.20895386 1.0981598 0.49241638 1.5921707 0.84210205c0.49401093 0.34970093 0.9468994 0.7650604 1.3472595 1.238617c0.044700623 -0.06314087 0.0896759 -0.12667847 0.1343689 -0.18981934l4.9895706 -7.048752l-1.8374939 -10.742249c-0.08317566 -0.48628235 -0.3617859 -0.89689636 -0.74102783 -1.1653595z" fill-rule="evenodd"/><g filter="url(#shadowFilter-ge017c80c60_0_119.2)"><use xlink:href="#ge017c80c60_0_119.2" transform="matrix(1.0 0.0 0.0 1.0 0.0 2.0)"/></g><defs><filter id="shadowFilter-ge017c80c60_0_119.2" filterUnits="userSpaceOnUse"><feGaussianBlur in="SourceAlpha" stdDeviation="2.0" result="blur"/><feComponentTransfer in="blur" color-interpolation-filters="sRGB"><feFuncR type="linear" slope="0" intercept="0.0"/><feFuncG type="linear" slope="0" intercept="0.0"/><feFuncB type="linear" slope="0" intercept="0.0"/><feFuncA type="linear" slope="0.59" intercept="0"/></feComponentTransfer></filter></defs><g id="ge017c80c60_0_119.2"><path fill="#ffffff" d="m396.78763 433.45294l0.07543945 0.23712158l-0.2371521 0.07543945l0.16171265 -0.31256104zm36.85205 -10.604095l0.3574524 0.184906l-0.27120972 0.08627319l-0.086242676 -0.2711792zm-47.91519 -42.85193c-1.6973572 0.539978 -3.1967468 1.7258301 -4.105591 3.4284058l-0.012542725 0.07852173c-1.7791748 3.4393005 -0.40838623 7.6303406 2.986023 9.386322l5.7171936 2.9578857l0.3664856 1.1519775c-2.4613037 3.171112 -3.1932983 7.321808 -1.9750671 11.151154c0.1293335 0.4065857 0.258667 0.81314087 0.45568848 1.1981812l0.60375977 1.8978577l-26.159729 8.3220825c-8.878021 2.8243408 -13.810394 12.304077 -10.97525 21.216156c2.835022 8.911621 12.338135 13.799561 21.216156 10.97522l9.216858 -2.932129c0.11306763 -0.032196045 0.22555542 -0.066101074 0.3375244 -0.101745605c0.9719238 -0.30917358 1.9006653 -0.7452698 2.7846985 -1.2276306l0 0l-2.7728577 5.3601685c-1.3631897 2.6351624 -0.3390503 5.8544617 2.2961426 7.217682l2.9481812 1.5247498c1.3175659 0.6815796 2.7809753 0.76641846 4.0815735 0.35266113c1.3001404 -0.41360474 2.4374695 -1.3258057 3.1020508 -2.63797l5.926056 -11.400604c1.1839905 2.1980286 2.810852 4.143585 4.7574463 5.6883545l0.16647339 0.17111206c4.994568 3.971161 11.6467285 5.1759644 17.712402 3.2463074c6.0657043 -1.929657 10.799042 -6.7564697 12.581543 -12.883575l0.07064819 -0.24658203c0.6022644 -2.0944824 0.8241577 -4.329529 0.6517334 -6.5132446l11.702759 6.0535583c1.3005371 0.6870117 2.7639465 0.7718506 4.0687866 0.3567505c1.3044128 -0.41497803 2.4502563 -1.3298645 3.1148376 -2.6420593l1.5480957 -2.9926453c1.3739014 -2.601532 0.34988403 -5.8204346 -2.285431 -7.1840515l-5.360016 -2.7724l0 0c1.1261292 -0.09713745 2.2427979 -0.34033203 3.327118 -0.6852722l9.183258 -2.9214172c8.911621 -2.835022 13.83316 -12.348846 10.998016 -21.260925c-2.8243103 -8.877991 -12.338135 -13.79953 -21.249786 -10.964508l-0.010681152 -0.03366089l-26.160187 8.322235l-1.3044739 -4.1005554l-0.11853027 -0.37249756c-1.2763367 -3.661316 -4.21817 -6.4571533 -7.9130554 -7.6322937l-0.3664856 -1.152008l2.9573364 -5.7174683c1.7451172 -3.4284973 0.40838623 -7.630371 -2.9967346 -9.419952c-1.7195129 -0.88986206 -3.6383972 -0.99765015 -5.3497925 -0.45318604c-1.7109985 0.544281 -3.2149048 1.7409363 -4.1042175 3.4607544l-4.6323547 8.899078c-0.5083008 0.982605 -0.70388794 2.1272888 -0.5392151 3.2314453c-0.50357056 -0.9963379 -1.2905273 -1.8284607 -2.2731018 -2.3367615l-8.88858 -4.597748c-1.7080688 -0.89819336 -3.6167603 -1.0092163 -5.325165 -0.46572876z" fill-rule="evenodd"/></g><path fill="#fb921d" d="m409.8601 449.44446c3.6255493 2.9510498 8.471283 3.872589 12.910309 2.4604187c4.4389954 -1.4121399 7.861603 -4.964081 9.115692 -9.467438z" fill-rule="evenodd"/><path fill="#fb921d" d="m402.60342 434.1404l0.9700928 3.049469l1.0133057 3.1852417l0.5605774 1.7620544l26.36322 -8.38681l-0.23712158 -0.7454529l-1.0133057 -3.1852417l-1.2935486 -4.0660706z" fill-rule="evenodd"/><path fill="#fb921d" d="m397.5152 418.14606l0.60375977 1.8978577l1.9403381 6.0993347l26.36325 -8.386841l-1.6170654 -5.08313l-0.9270325 -2.9140625z" fill-rule="evenodd"/><path fill="#4f3b29" d="m430.2602 429.81967l1.0133057 3.1852417l5.963928 -1.8972778l14.605743 7.5556335l1.5589294 -2.9585876l-15.856537 -8.202698z" fill-rule="evenodd"/><path fill="#4f3b29" d="m396.3222 439.4967l-8.16864 15.845703l2.947754 1.5249023l7.5556335 -14.605743l5.9298706 -1.8864441l-1.0133057 -3.1852417z" fill-rule="evenodd"/><path fill="#4f3b29" d="m405.15823 442.17123l0.24783325 0.77908325c0.8085327 2.541565 2.3516846 4.81192 4.4540405 6.4941406l22.059631 -7.0177307c0.71035767 -2.577057 0.6581116 -5.321686 -0.15042114 -7.8632507l-0.24786377 -0.77905273z" fill-rule="evenodd"/><path fill="#4f3b29" d="m400.0593 426.14325l2.5441284 7.997162l26.36322 -8.38681l-2.544098 -7.9971924z" fill-rule="evenodd"/><path fill="#4f3b29" d="m407.01004 402.36365c1.0655518 3.4672546 -0.69506836 7.1993103 -4.120514 8.512665c-0.14819336 0.05883789 -0.29727173 0.11190796 -0.44711304 0.15957642c-3.266571 1.0391846 -6.848297 -0.50390625 -8.310425 -3.6424866l3.4172668 10.741821l26.329193 -8.376007l-3.6867676 -11.588989c1.1534729 3.625885 -0.84594727 7.545929 -4.4718018 8.699402c-3.6595154 1.1641846 -7.5563354 -0.88012695 -8.709839 -4.5059814z" fill-rule="evenodd"/><path fill="#35a8e0" d="m365.21762 424.652c-6.065674 1.929657 -9.449951 8.416779 -7.5094604 14.51651c1.9295044 6.0652466 8.450684 9.438721 14.516357 7.5090637l9.183258 -2.9214478c2.812317 -0.8946533 5.1783752 -2.8414001 6.6307983 -5.4304504l10.080383 -18.281769l-1.6925049 -5.3202515z" fill-rule="evenodd"/><path fill="#35a8e0" d="m423.1131 407.3535l1.6816711 5.2861633l18.845673 9.154663c2.647705 1.284668 5.7377014 1.4957275 8.550018 0.6010437l9.183258 -2.9214172c6.099304 -1.9403381 9.43869 -8.450684 7.509033 -14.516388c-1.9403381 -6.099304 -8.42746 -9.483582 -14.526764 -7.5432434z" fill-rule="evenodd"/><path fill="#ececec" d="m411.4944 393.68884c-0.52960205 0.16848755 -1.0361328 0.3947754 -1.5066528 0.67526245c-2.6769104 1.6724854 -3.9245605 4.9052124 -3.0332642 7.942688c0.01083374 0.034057617 0.021514893 0.06768799 0.03237915 0.101745605c1.1534729 3.6258545 5.073517 5.6252747 8.699402 4.4718018c3.6594849 -1.1641846 5.669739 -5.050171 4.516266 -8.676056c-0.01083374 -0.034057617 -0.02154541 -0.06768799 -0.03237915 -0.101745605c-0.99346924 -3.0049744 -3.8795776 -4.922638 -7.030792 -4.741028c-0.56311035 0.048339844 -1.1157837 0.15899658 -1.6449585 0.32733154z" fill-rule="evenodd"/><path fill="#ececec" d="m398.2961 397.85944c-0.52960205 0.16845703 -1.0415039 0.40585327 -1.5236206 0.70880127c-2.7218323 1.649231 -3.9477844 4.9500732 -2.9776917 7.9995117c0.08627319 0.2711792 0.18338013 0.57644653 0.33718872 0.8256531c1.4522705 3.1576538 5.0515747 4.7368774 8.37262 3.680359c3.625885 -1.1535034 5.6357117 -5.0393677 4.5162964 -8.676056c-0.010864258 -0.034057617 -0.02154541 -0.06768799 -0.03237915 -0.101745605c-0.99346924 -3.0049744 -3.8904114 -4.9566956 -7.06485 -4.7302246c-0.5515137 0.025909424 -1.0979614 0.12521362 -1.6275635 0.29370117z" fill-rule="evenodd"/><path fill="#4f3b29" d="m413.0378 376.86603c-0.37548828 0.1194458 -0.71932983 0.39291382 -0.9544983 0.8605957l-4.59787 8.888123l2.4039307 7.5565796c0.021514893 0.06768799 0.04321289 0.13580322 0.053894043 0.1694336c0.48727417 -0.28533936 1.0021667 -0.5147705 1.5317688 -0.68325806c0.5291748 -0.16833496 1.0734558 -0.2758789 1.6194153 -0.31921387l0.044891357 0.023223877c-0.021514893 -0.06768799 -0.043182373 -0.13583374 -0.06472778 -0.20352173l-1.9833984 -6.23468l3.940277 -7.671936c0.8048096 -1.513855 -0.7637634 -2.7766113 -1.9936829 -2.3853455z" fill-rule="evenodd"/><path fill="#4f3b29" d="m387.30292 385.10593c-0.4065857 0.12936401 -0.76464844 0.4111023 -0.9727783 0.81344604c-0.41571045 0.80358887 -0.092285156 1.8201904 0.7114258 2.2363281l7.68277 3.9743347l1.9833984 6.23468c-0.012512207 0.07852173 0.009155273 0.14663696 0.0647583 0.20352173c0.4650879 -0.29751587 0.96847534 -0.53219604 1.4980774 -0.7006836c0.52960205 -0.16848755 1.0845642 -0.2704773 1.6531067 -0.30181885c-0.02154541 -0.06768799 -0.04321289 -0.13580322 -0.06472778 -0.20349121l-2.4039612 -7.556549l-8.888123 -4.5979004c-0.40234375 -0.20812988 -0.85739136 -0.23120117 -1.2639465 -0.101867676z" fill-rule="evenodd"/><g filter="url(#shadowFilter-ge017c80c60_0_119.3)"><use xlink:href="#ge017c80c60_0_119.3" transform="matrix(1.0 0.0 0.0 1.0 0.0 2.0)"/></g><defs><filter id="shadowFilter-ge017c80c60_0_119.3" filterUnits="userSpaceOnUse"><feGaussianBlur in="SourceAlpha" stdDeviation="2.0" result="blur"/><feComponentTransfer in="blur" color-interpolation-filters="sRGB"><feFuncR type="linear" slope="0" intercept="0.0"/><feFuncG type="linear" slope="0" intercept="0.0"/><feFuncB type="linear" slope="0" intercept="0.0"/><feFuncA type="linear" slope="0.59" intercept="0"/></feComponentTransfer></filter></defs><g id="ge017c80c60_0_119.3"><path fill="#ffffff" d="m904.2612 95.97216l0.17486572 -0.1233902l0.12335205 0.17485046l-0.29821777 -0.051460266zm-18.257874 -27.463799l0.05883789 -0.34107208l0.14111328 0.19996643l-0.19995117 0.14110565zm-22.700684 50.406937c0.88323975 1.2515564 2.244629 2.1732025 3.8764648 2.4765549l0.06762695 -0.010108948c3.2816772 0.56624603 6.3622437 -1.6452942 6.9210815 -4.8841248l0.94158936 -5.4552155l0.84942627 -0.5994415c3.2387695 1.195137 6.83197 0.71817017 9.655579 -1.2744217c0.2998047 -0.21154785 0.59954834 -0.42310333 0.86413574 -0.6845703l1.3994141 -0.9875488l13.612122 19.289192c4.619629 6.546295 13.672241 8.130371 20.243652 3.4930267c6.571045 -4.6371307 8.11261 -13.697365 3.492981 -20.24366l-4.7959595 -6.7961655c-0.055725098 -0.08433533 -0.11273193 -0.16777802 -0.17102051 -0.2503357c-0.50567627 -0.71665955 -1.1043091 -1.364975 -1.729187 -1.9646301l0 0l5.114441 0.8824997c2.5144043 0.43385315 4.8881836 -1.2413025 5.3220825 -3.7556915l0.48510742 -2.8129425c0.21691895 -1.2572021 -0.093322754 -2.4790878 -0.77008057 -3.4380875c-0.6765137 -0.9586792 -1.7196045 -1.6544724 -2.9678955 -1.8588486l-10.885437 -1.9003143c1.4949341 -1.5411911 2.6679688 -3.3799744 3.4293823 -5.3768997l0.09710693 -0.18091583c1.9598999 -5.1256638 1.2214355 -10.892548 -1.9348145 -15.365143c-3.15625 -4.472603 -8.342224 -7.100956 -13.828491 -6.972431l-0.22052002 0.0060653687c-1.8735962 0.04971695 -3.763733 0.4478035 -5.5094604 1.1558762l1.9264526 -11.166237c0.22583008 -1.2446404 -0.08441162 -2.4665298 -0.7633667 -3.4286652c-0.678772 -0.9618225 -1.7262573 -1.6638908 -2.9746094 -1.8682632l-2.8554688 -0.4927101c-2.489563 -0.45135498 -4.863037 1.2235756 -5.297241 3.7381897l-0.8821411 5.114235l0 0c-0.3718872 -0.89811707 -0.861084 -1.7505951 -1.425293 -2.5501251l-4.7784424 -6.771366c-4.637146 -6.5710945 -13.714905 -8.137451 -20.286255 -3.500103c-6.5463257 4.619629 -8.112671 13.697361 -3.475525 20.268456l-0.024841309 0.017498016l13.612366 19.289501l-3.0236206 2.1337051l-0.2746582 0.1938324c-2.6707764 1.9966354 -4.199707 5.1342545 -4.2043457 8.468712l-0.8494873 0.5994415l-5.455261 -0.9410324c-3.263977 -0.5411377 -6.3622437 1.6452866 -6.945923 4.9016266c-0.28338623 1.6407852 0.1262207 3.2420807 1.0167236 4.503998c0.8903198 1.2616119 2.2617188 2.1841583 3.902649 2.4670181l8.498657 1.4887619c0.9375 0.16177368 1.9268188 0.025093079 2.7894287 -0.39646912c-0.6862793 0.6714325 -1.1643066 1.5326233 -1.3260498 2.470169l-1.4631348 8.481033c-0.29315186 1.6335907 0.111083984 3.2273483 1.000061 4.487076z" fill-rule="evenodd"/></g><path fill="#f2b03b" d="m913.9805 81.10384c1.4787598 -3.738449 0.9768677 -7.950714 -1.3329468 -11.223862c-2.3098145 -3.2731476 -6.1103516 -5.1576614 -10.128174 -5.0172577z" fill-rule="evenodd"/><path fill="#f2b03b" d="m903.3157 91.025276l2.2485352 -1.5867615l2.3486938 -1.6574326l1.2992554 -0.91687775l-13.717957 -19.43924l-0.5496826 0.38788605l-2.3486938 1.6574249l-2.998169 2.1157608z" fill-rule="evenodd"/><path fill="#f2b03b" d="m891.52203 99.34787l1.3994141 -0.9875488l4.4974365 -3.1737518l-13.718018 -19.439232l-3.748108 2.6449738l-2.1486816 1.5163193z" fill-rule="evenodd"/><path fill="#4f3b29" d="m892.5958 69.470276l2.3486938 -1.6574249l-3.1033325 -4.397579l2.4047241 -13.936253l-2.8303833 -0.5104294l-2.6105957 15.129738z" fill-rule="evenodd"/><path fill="#4f3b29" d="m909.3374 94.785355l15.1119995 2.5855103l0.48535156 -2.8126297l-13.936279 -2.4046936l-3.0855713 -4.3724594l-2.3486938 1.6574326z" fill-rule="evenodd"/><path fill="#4f3b29" d="m909.2373 86.84648l0.5744629 -0.40538788c1.8740234 -1.3224869 3.335083 -3.1769104 4.168762 -5.3372498l-11.478577 -16.265915c-2.2973633 0.0863266 -4.5341797 0.8414383 -6.408203 2.1639252l-0.5744629 0.40538788z" fill-rule="evenodd"/><path fill="#4f3b29" d="m897.4189 95.18657l5.8967896 -4.161293l-13.718018 -19.43924l-5.8967896 4.1613007z" fill-rule="evenodd"/><path fill="#4f3b29" d="m876.1178 95.65853c2.5663452 -1.7734299 6.083191 -1.298378 8.04895 1.1693954c0.08673096 0.10621643 0.16888428 0.21468353 0.2468872 0.32518005c1.6997681 2.408638 1.3640137 5.745804 -0.829895 7.759102l7.9205933 -5.5894547l-13.700256 -19.414124l-8.545288 6.030281c2.673584 -1.8867035 6.406555 -1.2646332 8.293274 1.4089432c1.9041748 2.698372 1.2392578 6.423973 -1.4342651 8.310677z" fill-rule="evenodd"/><path fill="#35a8e0" d="m905.23785 124.140854c3.15625 4.4726105 9.353394 5.563965 13.851135 2.3899994c4.47229 -3.1560287 5.5459595 -9.378296 2.3897095 -13.850899l-4.7785034 -6.7713623c-1.4633789 -2.0737 -3.673523 -3.508461 -6.173218 -4.027458l-17.60553 -3.520813l-3.9229126 2.768364z" fill-rule="evenodd"/><path fill="#35a8e0" d="m876.03015 81.16045l3.8978271 -2.7506409l2.6154785 -17.827602c0.36621094 -2.504284 -0.26263428 -5.092598 -1.7260132 -7.1662903l-4.7784424 -6.77137c-3.173767 -4.4973984 -9.378296 -5.545933 -13.850891 -2.3896828c-4.4974365 3.173748 -5.588806 9.370903 -2.415039 13.868305z" fill-rule="evenodd"/><path fill="#ececec" d="m867.84143 94.23294c0.27557373 0.39050293 0.59259033 0.74707794 0.9446411 1.0600815c2.065979 1.7608337 5.040344 1.9448853 7.2994995 0.4258423c0.025146484 -0.017723083 0.049926758 -0.035217285 0.07501221 -0.05294037c2.673584 -1.8867111 3.2956543 -5.6196976 1.4089355 -8.293274c-1.9041748 -2.698372 -5.6120605 -3.3381653 -8.285645 -1.4514618c-0.02508545 0.017723083 -0.049926758 0.035224915 -0.07501221 0.052947998c-2.2059937 1.5943756 -3.029358 4.458397 -2.0627441 6.9950027c0.18579102 0.44917297 0.4199829 0.87361145 0.6953125 1.2638016z" fill-rule="evenodd"/><path fill="#ececec" d="m874.68604 103.97213c0.27557373 0.39050293 0.60302734 0.74861145 0.9765625 1.0653076c2.0585327 1.8036728 5.08313 1.9522781 7.331665 0.36550903c0.19995117 -0.14110565 0.42504883 -0.29994202 0.58947754 -0.49073792c2.2121582 -2.0101624 2.572876 -5.3711166 0.8447876 -7.8199387c-1.8867188 -2.6735764 -5.5943604 -3.313057 -8.285645 -1.4514618c-0.02508545 0.017723083 -0.049926758 0.035224915 -0.07501221 0.052947998c-2.2060547 1.5943756 -3.0545044 4.47612 -2.044983 7.0201187c0.16430664 0.44547272 0.38757324 0.86774445 0.663147 1.258255z" fill-rule="evenodd"/><path fill="#4f3b29" d="m853.6476 97.333115c0.19537354 0.2768631 0.5088501 0.48781586 0.9533081 0.55927277l8.480713 1.4633408l5.5718994 -3.932022c0.049926758 -0.035217285 0.10015869 -0.07066345 0.124938965 -0.08816528c-0.36035156 -0.32546997 -0.6821289 -0.6880951 -0.95770264 -1.0786057c-0.2753296 -0.39019012 -0.50476074 -0.80857086 -0.68200684 -1.244957l0.007385254 -0.04283905c-0.049865723 0.035224915 -0.100097656 0.07066345 -0.15002441 0.10588837l-4.597229 3.244194l-7.312866 -1.2397766c-1.4500732 -0.2670288 -2.0784302 1.3467789 -1.4384155 2.2536697z" fill-rule="evenodd"/><path fill="#4f3b29" d="m867.08203 116.29529c0.21154785 0.2997818 0.53552246 0.5202637 0.9194336 0.5865021c0.76672363 0.13230133 1.5163574 -0.39669037 1.6489258 -1.1636505l1.2648926 -7.33062l4.597229 -3.244194c0.06762695 -0.010108948 0.11785889 -0.045547485 0.15008545 -0.10588837c-0.36468506 -0.30413818 -0.6876831 -0.6559677 -0.96325684 -1.0464783c-0.27557373 -0.39050293 -0.50323486 -0.81905365 -0.67645264 -1.2770844c-0.049926758 0.035217285 -0.10015869 0.07066345 -0.15008545 0.10588837l-5.5718994 3.9320145l-1.4633179 8.480728c-0.06628418 0.3839035 0.03289795 0.76299286 0.2444458 1.0627823z" fill-rule="evenodd"/><g filter="url(#shadowFilter-ge017c80c60_0_119.4)"><use xlink:href="#ge017c80c60_0_119.4" transform="matrix(1.0 0.0 0.0 1.0 0.0 2.0)"/></g><defs><filter id="shadowFilter-ge017c80c60_0_119.4" filterUnits="userSpaceOnUse"><feGaussianBlur in="SourceAlpha" stdDeviation="2.0" result="blur"/><feComponentTransfer in="blur" color-interpolation-filters="sRGB"><feFuncR type="linear" slope="0" intercept="0.0"/><feFuncG type="linear" slope="0" intercept="0.0"/><feFuncB type="linear" slope="0" intercept="0.0"/><feFuncA type="linear" slope="0.59" intercept="0"/></feComponentTransfer></filter></defs><g id="ge017c80c60_0_119.4"><path fill="#ffffff" d="m868.2155 408.41266l-0.17480469 -0.09283447l0.09265137 -0.17471313l0.08215332 0.2675476zm-15.02771 26.514282l-0.30596924 0.09362793l0.10595703 -0.19979858l0.2000122 0.106170654zm51.06891 -2.2829895c0.66345215 -1.2505188 0.85491943 -2.7580261 0.42333984 -4.230957l-0.03656006 -0.051605225c-0.90411377 -2.9438477 -4.015686 -4.563751 -6.9211426 -3.674652l-4.893738 1.4972839l-0.84942627 -0.4510193c-0.3673706 -3.1706238 -2.262207 -5.936615 -5.0858154 -7.4357605c-0.2998047 -0.15917969 -0.5996094 -0.31832886 -0.9258423 -0.42764282l-1.3994141 -0.7430115l10.22522 -19.27304c3.4702148 -6.5408325 0.99450684 -14.670746 -5.5769043 -18.15976c-6.571106 -3.4888306 -14.689575 -0.98373413 -18.15979 5.5570984l-3.6026 6.7904663c-0.046325684 0.08117676 -0.091308594 0.16299438 -0.1350708 0.2454834c-0.37994385 0.71606445 -0.66467285 1.4802246 -0.8982544 2.245819l0 0l-1.4089355 -4.5879517c-0.692688 -2.2555542 -3.0665283 -3.5158997 -5.3220825 -2.8256836l-2.5232544 0.7724304c-1.1277466 0.34509277 -2.0061646 1.1104431 -2.5145264 2.0686646c-0.5081787 0.9578552 -0.6463623 2.1085815 -0.293396 3.223816l2.9806519 9.774048c-1.8960571 -0.5910034 -3.9031372 -0.7923279 -5.8686523 -0.58810425l-0.18981934 -0.004699707c-5.0473633 0.5196533 -9.496277 3.533081 -11.8671875 8.001953c-2.3709717 4.468872 -2.3723755 9.843628 0.026062012 14.316956l0.09710693 0.17938232c0.82385254 1.525238 1.9420776 2.9189148 3.2556152 4.064148l-10.016663 3.0654602c-1.1210938 0.33258057 -1.9995117 1.0979309 -2.5095215 2.0592651c-0.5098877 0.96099854 -0.6513672 2.1180115 -0.29840088 3.2332458l0.7866821 2.5615234c0.6679077 2.2423706 3.0413818 3.502533 5.297241 2.8125l4.5876465 -1.4041443l0 0c-0.58551025 0.6812439 -1.0844116 1.4402771 -1.5082397 2.2391357l-3.5894775 6.7657166c-3.4833374 6.5655823 -0.98254395 14.708862 5.588867 18.197845c6.5463257 3.4756775 14.689575 0.98373413 18.172913 -5.581848l0.024780273 0.013153076l10.225403 -19.273376l3.0235596 1.6053467l0.2746582 0.1458435c2.7631226 1.3713379 5.9903564 1.3248596 8.743103 -0.06137085l0.8494873 0.4510193l1.5031128 4.8936157c0.9173584 2.9187622 4.015686 4.563751 6.945862 3.6878357c1.4720459 -0.4501953 2.6218872 -1.455719 3.2908325 -2.7165833c0.6687622 -1.2605591 0.8568115 -2.776764 0.40454102 -4.2486267l-2.322876 -7.6331177c-0.25830078 -0.84103394 -0.7844238 -1.6003418 -1.4926147 -2.1363525c0.8406372 0.28634644 1.7508545 0.32177734 2.591858 0.06439209l7.607849 -2.3283386c1.4701538 -0.43911743 2.6160278 -1.4371338 3.2838135 -2.6958008z" fill-rule="evenodd"/></g><path fill="#fb921d" d="m851.8887 406.59137c-3.7019653 0.3383484 -6.967224 2.5085144 -8.7022705 5.7789307c-1.7351074 3.2704163 -1.7017822 7.191925 0.09283447 10.448608z" fill-rule="evenodd"/><path fill="#fb921d" d="m864.52966 411.25513l-2.2485352 -1.1938171l-2.3486938 -1.2470093l-1.2993164 -0.68981934l-10.304749 19.422974l0.5496826 0.2918396l2.3486938 1.2469788l2.998169 1.5918579z" fill-rule="evenodd"/><path fill="#fb921d" d="m876.32324 417.5168l-1.3994141 -0.7430115l-4.4973755 -2.387848l-10.304749 19.423004l3.748108 1.9899902l2.1486816 1.1408386z" fill-rule="evenodd"/><path fill="#4f3b29" d="m851.22675 429.08627l-2.3486938 -1.2469788l-2.3311768 4.3938904l-12.501587 3.825653l0.76153564 2.5481873l13.572266 -4.1532593z" fill-rule="evenodd"/><path fill="#4f3b29" d="m865.1155 404.71893l-4.1813965 -13.54718l-2.5231323 0.7720947l3.8392944 12.501648l-2.31781 4.368805l2.3486938 1.2470093z" fill-rule="evenodd"/><path fill="#4f3b29" d="m858.60803 408.11115l-0.5744629 -0.3050232c-1.8740234 -0.9949951 -4.0143433 -1.4274597 -6.1448975 -1.2147522l-8.622559 16.25232c1.0311279 1.8595581 2.588684 3.390442 4.4627075 4.385437l0.5744629 0.30499268z" fill-rule="evenodd"/><path fill="#4f3b29" d="m870.42645 414.38596l-5.8967896 -3.1308289l-10.304749 19.423004l5.8967896 3.1308289z" fill-rule="evenodd"/><path fill="#4f3b29" d="m879.7162 431.7653c-2.5353394 -1.3782654 -3.612915 -4.4781494 -2.3984375 -7.128937c0.0513916 -0.11581421 0.10650635 -0.22885132 0.1651001 -0.33926392c1.2767944 -2.4066162 4.170105 -3.5208435 6.7476807 -2.5498657l-7.9205933 -4.2053223l-10.291443 19.397888l8.545288 4.5369873c-2.673584 -1.4194946 -3.7201538 -4.7590027 -2.3029175 -7.430359c1.4304199 -2.696106 4.7817383 -3.7006226 7.4553223 -2.281128z" fill-rule="evenodd"/><path fill="#35a8e0" d="m891.04553 395.8637c2.3709717 -4.468872 0.68188477 -10.037262 -3.815796 -12.425262c-4.47229 -2.3745117 -10.054077 -0.6664429 -12.424988 3.8024292l-3.5894775 6.7657166c-1.0993042 2.0719604 -1.359436 4.4937744 -0.743103 6.772705l4.45166 15.994507l3.9229736 2.0828247z" fill-rule="evenodd"/><path fill="#35a8e0" d="m867.7924 437.88162l-3.8978271 -2.0694885l-15.799927 5.2739563c-2.218933 0.7418213 -4.0914307 2.3397217 -5.190735 4.411682l-3.5894775 6.7657166c-2.3840942 4.493622 -0.6566162 10.050262 3.815979 12.424927c4.4974365 2.387848 10.065857 0.7048645 12.449951 -3.7887878z" fill-rule="evenodd"/><path fill="#ececec" d="m881.9983 439.18863c0.20697021 -0.39019775 0.36871338 -0.8003845 0.47979736 -1.221405c0.58935547 -2.4387512 -0.5015869 -4.9696655 -2.6986694 -6.200531c-0.025146484 -0.013336182 -0.049926758 -0.026489258 -0.07507324 -0.03982544c-2.673523 -1.4194946 -6.0130615 -0.3765564 -7.430298 2.2947998c-1.4304199 2.696106 -0.40893555 6.022278 2.2646484 7.4417725c0.02508545 0.013336182 0.049926758 0.026519775 0.07501221 0.039855957c2.2370605 1.1555786 4.9437866 0.6409607 6.6325073 -1.2141113c0.2929077 -0.34054565 0.54522705 -0.71069336 0.7520752 -1.1005554z" fill-rule="evenodd"/><path fill="#ececec" d="m887.1728 429.48087c0.20703125 -0.39019775 0.3656006 -0.8096924 0.4708252 -1.2499084c0.6278076 -2.4505005 -0.5133667 -5.008087 -2.7619019 -6.201935c-0.19995117 -0.106170654 -0.42504883 -0.22567749 -0.6511841 -0.28179932c-2.5825806 -0.9873047 -5.5059814 0.11618042 -6.804138 2.5629272c-1.4172363 2.6713562 -0.39556885 5.997223 2.2646484 7.441803c0.025146484 0.013336182 0.049926758 0.026519775 0.07507324 0.039855957c2.2370605 1.1555481 4.968872 0.6542969 6.645752 -1.2392273c0.29882812 -0.32131958 0.5539551 -0.6815491 0.7609253 -1.0717163z" fill-rule="evenodd"/><path fill="#4f3b29" d="m890.4865 449.60794c0.14678955 -0.27664185 0.18981934 -0.62323 0.06304932 -1.0197754l-2.3363647 -7.6076965l-5.5718994 -2.9583435c-0.049926758 -0.026489258 -0.10015869 -0.05316162 -0.124938965 -0.066345215c-0.11791992 0.43307495 -0.2826538 0.84973145 -0.48962402 1.2398987c-0.20684814 0.38986206 -0.45617676 0.75357056 -0.74212646 1.0817261l-0.038391113 0.011779785c0.049926758 0.026489258 0.100097656 0.05316162 0.15002441 0.07965088l4.597229 2.440857l2.032837 6.550873c0.38562012 1.3078308 1.9794312 1.1535034 2.460205 0.24737549z" fill-rule="evenodd"/><path fill="#4f3b29" d="m900.5162 430.61777c0.15887451 -0.29953003 0.20544434 -0.65875244 0.09967041 -1.0031128c-0.21124268 -0.6878357 -0.9608154 -1.0858154 -1.6489868 -0.8755188l-6.575989 2.012329l-4.597229 -2.4408264c-0.03656006 -0.051605225 -0.08679199 -0.07824707 -0.15002441 -0.0796814c-0.09857178 0.42767334 -0.2538452 0.84091187 -0.46081543 1.2310791c-0.20703125 0.39016724 -0.4654541 0.75668335 -0.77093506 1.0905457c0.049926758 0.026519775 0.10015869 0.05319214 0.15008545 0.0796814l5.5718994 2.9583435l7.607727 -2.328064c0.34436035 -0.1053772 0.6156616 -0.34524536 0.77459717 -0.6447754z" fill-rule="evenodd"/></g></svg>